<svg width="390" height="844" viewBox="0 0 390 844" fill="none" xmlns="http://www.w3.org/2000/svg">
<g clip-path="url(#clip0_29_336)">
<rect width="390" height="844" fill="#4BBAD9"/>
<g clip-path="url(#clip1_29_336)">
<path d="M196.98 254.891C195.558 254.469 194.061 255.287 193.637 256.721C193.214 258.154 194.025 259.658 195.446 260.081C196.87 260.5 198.362 259.683 198.785 258.25C199.213 256.816 198.401 255.313 196.98 254.891Z" fill="white"/>
<path d="M345.167 299.886C344.81 301.336 345.686 302.799 347.127 303.154C348.568 303.509 350.023 302.623 350.383 301.172C350.74 299.721 349.862 298.257 348.424 297.903C346.982 297.547 345.524 298.433 345.167 299.886Z" fill="white"/>
<path d="M307.827 63.9534C307.669 64.5881 308.01 65.2202 308.583 65.3618C309.158 65.5039 309.753 65.1033 309.908 64.4678C310.066 63.8315 309.728 63.1997 309.153 63.0577C308.577 62.9157 307.983 63.3162 307.827 63.9534Z" fill="white"/>
<path d="M33.8252 55.0463C33.6663 55.6842 34.0071 56.3148 34.5806 56.4564C35.1557 56.5984 35.7476 56.1954 35.9052 55.5623C36.0604 54.9251 35.7248 54.2943 35.1497 54.1522C34.5747 54.0102 33.9816 54.4112 33.8252 55.0463Z" fill="white"/>
<path d="M302.586 287.715C302.745 287.078 302.407 286.448 301.831 286.304C301.258 286.161 300.665 286.563 300.507 287.198C300.348 287.834 300.685 288.465 301.26 288.607C301.834 288.751 302.428 288.352 302.588 287.716L302.586 287.715Z" fill="white"/>
<path d="M310.356 5.71805C310.514 5.08175 310.181 4.4497 309.602 4.30841C309.029 4.1636 308.433 4.56531 308.274 5.20161C308.119 5.83717 308.453 6.46761 309.027 6.60921C309.602 6.75285 310.196 6.35232 310.354 5.71762L310.356 5.71805Z" fill="white"/>
<path d="M109.968 204.498C110.128 203.862 109.789 203.23 109.212 203.088C108.641 202.945 108.046 203.345 107.888 203.982C107.729 204.618 108.069 205.25 108.641 205.391C109.218 205.536 109.809 205.134 109.969 204.498L109.968 204.498Z" fill="white"/>
<path d="M235.236 45.1209C234.612 44.9365 233.97 45.2487 233.8 45.8214C233.63 46.3909 234.001 47.0055 234.624 47.1915C235.248 47.3775 235.894 47.063 236.06 46.4926C236.23 45.9179 235.859 45.307 235.236 45.1209Z" fill="white"/>
<path d="M139.798 374.896C139.173 374.708 138.531 375.022 138.362 375.593C138.192 376.164 138.561 376.778 139.187 376.965C139.811 377.149 140.452 376.837 140.621 376.265C140.792 375.693 140.422 375.079 139.796 374.895L139.798 374.896Z" fill="white"/>
<path d="M354.771 68.976C354.148 68.7899 353.505 69.1017 353.335 69.6764C353.166 70.2496 353.533 70.8596 354.159 71.0481C354.783 71.2325 355.429 70.918 355.595 70.344C355.763 69.7757 355.397 69.1592 354.773 68.9748L354.771 68.976Z" fill="white"/>
<path d="M275.782 542.196C275.158 542.01 274.514 542.32 274.346 542.893C274.176 543.47 274.544 544.078 275.17 544.266C275.795 544.448 276.437 544.135 276.608 543.566C276.777 542.993 276.407 542.381 275.783 542.196L275.782 542.196Z" fill="white"/>
<path d="M385.621 496.856C384.199 496.434 382.702 497.253 382.278 498.686C381.855 500.12 382.666 501.624 384.087 502.046C385.511 502.466 387.003 501.649 387.426 500.216C387.854 498.781 387.042 497.279 385.621 496.856Z" fill="white"/>
<path d="M346.212 158.862C344.789 158.44 343.293 159.259 342.866 160.691C342.442 162.126 343.252 163.629 344.676 164.048C346.099 164.472 347.594 163.653 348.021 162.221C348.442 160.785 347.632 159.283 346.212 158.862Z" fill="white"/>
<path d="M107.501 248.902C107.143 250.352 108.015 251.817 109.455 252.175C110.896 252.532 112.354 251.648 112.715 250.198C113.073 248.747 112.201 247.281 110.76 246.926C109.32 246.566 107.862 247.452 107.5 248.904L107.501 248.902Z" fill="white"/>
<path d="M388.41 557.092C389.833 557.515 391.329 556.697 391.752 555.264C392.176 553.83 391.366 552.328 389.943 551.906C388.523 551.484 387.027 552.304 386.602 553.736C386.179 555.169 386.987 556.673 388.409 557.09L388.41 557.092Z" fill="white"/>
<path d="M291.389 138.595C291.586 137.974 291.288 137.326 290.719 137.143C290.153 136.962 289.53 137.317 289.333 137.938C289.134 138.558 289.432 139.208 289.997 139.388C290.565 139.57 291.188 139.215 291.387 138.595L291.389 138.595Z" fill="white"/>
<path d="M85.2849 465.933C86.7365 466.288 88.1993 465.405 88.5482 463.962C88.9009 462.523 88.0067 461.065 86.5574 460.715C85.1057 460.36 83.6449 461.242 83.2949 462.683C82.9413 464.125 83.8364 465.579 85.2844 465.935L85.2849 465.933Z" fill="white"/>
<path d="M147.896 437.529C149.317 437.951 150.814 437.133 151.238 435.699C151.662 434.266 150.851 432.761 149.429 432.339C148.005 431.92 146.514 432.736 146.09 434.17C145.663 435.604 146.474 437.107 147.896 437.529Z" fill="white"/>
<path d="M224.336 339.236C225.759 339.659 227.255 338.84 227.682 337.408C228.106 335.972 227.296 334.47 225.872 334.051C224.45 333.627 222.954 334.445 222.527 335.878C222.107 337.312 222.916 338.816 224.336 339.236Z" fill="white"/>
<path d="M235.865 309.169C236.489 309.354 237.134 309.043 237.301 308.469C237.47 307.896 237.103 307.286 236.48 307.1C235.856 306.914 235.212 307.229 235.041 307.796C234.875 308.372 235.241 308.985 235.865 309.169Z" fill="white"/>
<path d="M93.6732 66.8671C93.8321 66.2292 93.4912 65.5986 92.9177 65.457C92.3427 65.315 91.7507 65.718 91.5931 66.3511C91.4379 66.9882 91.7735 67.6191 92.3486 67.7611C92.9237 67.9032 93.5184 67.5026 93.6732 66.8671Z" fill="white"/>
<path d="M281.165 310.539C280.807 311.988 281.679 313.453 283.119 313.812C284.56 314.169 286.018 313.284 286.379 311.834C286.737 310.383 285.865 308.918 284.424 308.563C282.984 308.203 281.526 309.088 281.164 310.54L281.165 310.539Z" fill="white"/>
<path d="M206.232 22.6441C206.073 23.282 206.411 23.9117 206.987 24.0557C207.56 24.1989 208.154 23.7964 208.312 23.1617C208.47 22.5254 208.133 21.8941 207.558 21.752C206.985 21.6088 206.391 22.0078 206.231 22.6436L206.232 22.6441Z" fill="white"/>
<path d="M304.302 161.968C304.143 162.606 304.481 163.236 305.057 163.38C305.63 163.523 306.224 163.121 306.382 162.486C306.54 161.85 306.203 161.218 305.628 161.076C305.055 160.933 304.461 161.332 304.301 161.968L304.302 161.968Z" fill="white"/>
<path d="M357.741 529.642C357.582 530.279 357.92 530.909 358.496 531.053C359.069 531.196 359.663 530.794 359.821 530.159C359.979 529.523 359.642 528.892 359.067 528.75C358.494 528.606 357.899 529.005 357.739 529.641L357.741 529.642Z" fill="white"/>
<path d="M69.2379 48.5136C69.0791 49.1515 69.4167 49.7812 69.993 49.9252C70.5676 50.0689 71.1595 49.6659 71.3176 49.0312C71.476 48.3949 71.1388 47.7636 70.5637 47.6215C69.9907 47.4783 69.3964 47.8772 69.2363 48.5131L69.2379 48.5136Z" fill="white"/>
<path d="M24.429 49.426C24.2706 50.0623 24.6078 50.6936 25.184 50.8377C25.7591 50.9797 26.3506 50.5783 26.5086 49.9436C26.6671 49.3073 26.3299 48.676 25.7557 48.5308C25.179 48.3883 24.5862 48.7876 24.4278 49.4239L24.429 49.426Z" fill="white"/>
<path d="M148.272 181.209C148.112 181.845 148.45 182.477 149.027 182.619C149.599 182.762 150.193 182.361 150.352 181.725C150.51 181.089 150.17 180.457 149.598 180.316C149.022 180.171 148.429 180.572 148.27 181.209L148.272 181.209Z" fill="white"/>
<path d="M236.616 235.16C236.252 236.609 237.129 238.074 238.571 238.433C240.008 238.791 241.466 237.905 241.828 236.457C242.186 235.007 241.314 233.542 239.874 233.182C238.434 232.825 236.976 233.709 236.616 235.16Z" fill="white"/>
<path d="M119.21 189.9C119.051 190.536 119.388 191.168 119.965 191.312C120.536 191.455 121.131 191.054 121.289 190.418C121.448 189.78 121.11 189.15 120.537 189.007C119.962 188.867 119.368 189.265 119.21 189.9Z" fill="white"/>
<path d="M142.691 343.647C144.112 344.069 145.607 343.252 146.035 341.818C146.458 340.384 145.648 338.882 144.227 338.46C142.802 338.038 141.306 338.857 140.882 340.291C140.459 341.724 141.267 343.226 142.69 343.648L142.691 343.647Z" fill="white"/>
<path d="M239.525 419.011C240.149 419.195 240.791 418.884 240.962 418.31C241.129 417.738 240.757 417.125 240.136 416.942C239.51 416.755 238.868 417.068 238.701 417.64C238.531 418.214 238.901 418.826 239.525 419.011Z" fill="white"/>
<path d="M76.3004 335.14C76.924 335.326 77.5684 335.016 77.7359 334.443C77.9058 333.866 77.5384 333.258 76.912 333.069C76.2872 332.888 75.6459 333.199 75.4741 333.769C75.305 334.342 75.6748 334.955 76.2988 335.139L76.3004 335.14Z" fill="white"/>
<path d="M224.091 528.265C224.715 528.451 225.357 528.135 225.527 527.564C225.698 526.993 225.326 526.38 224.703 526.194C224.078 526.011 223.433 526.323 223.267 526.891C223.098 527.466 223.468 528.078 224.091 528.265Z" fill="white"/>
<path d="M253.544 536.865C254.168 537.051 254.813 536.738 254.98 536.166C255.149 535.594 254.779 534.982 254.156 534.794C253.531 534.611 252.89 534.923 252.722 535.497C252.55 536.068 252.92 536.68 253.544 536.865Z" fill="white"/>
<path d="M167.581 313.772C169.002 314.194 170.5 313.375 170.923 311.942C171.347 310.508 170.536 309.004 169.115 308.582C167.691 308.163 166.199 308.979 165.775 310.413C165.348 311.847 166.16 313.349 167.581 313.772Z" fill="white"/>
<path d="M130.556 49.6338C130.196 51.0825 131.07 52.5486 132.511 52.907C133.949 53.2649 135.406 52.3787 135.767 50.93C136.128 49.4781 135.253 48.0152 133.812 47.6568C132.372 47.3001 130.917 48.1835 130.555 49.6333L130.556 49.6338Z" fill="white"/>
<path d="M348.028 361.269C348.483 359.855 347.699 358.341 346.275 357.884C344.85 357.428 343.331 358.205 342.88 359.619C342.424 361.031 343.208 362.546 344.631 363.003C346.056 363.455 347.575 362.677 348.027 361.268L348.028 361.269Z" fill="white"/>
<path d="M75.8352 242.202C75.4125 243.626 76.2311 245.121 77.6633 245.548C79.098 245.972 80.6 245.162 81.0195 243.738C81.4439 242.315 80.6253 240.819 79.193 240.392C77.7591 239.972 76.2555 240.782 75.8352 242.202Z" fill="white"/>
<path d="M77.9723 412.46C77.7862 413.084 78.1006 413.73 78.6724 413.897C79.247 414.066 79.8578 413.696 80.0407 413.071C80.2284 412.448 79.9131 411.805 79.3438 411.636C78.7692 411.466 78.1584 411.837 77.9723 412.46Z" fill="white"/>
<path d="M126.186 364.239C126.005 364.864 126.316 365.509 126.89 365.676C127.464 365.846 128.077 365.476 128.26 364.851C128.446 364.226 128.133 363.587 127.561 363.415C126.99 363.246 126.376 363.614 126.186 364.239Z" fill="white"/>
<path d="M190.784 447.55C192.233 447.907 193.7 447.029 194.053 445.588C194.41 444.147 193.521 442.691 192.072 442.332C190.62 441.974 189.158 442.854 188.802 444.29C188.446 445.735 189.334 447.19 190.784 447.55Z" fill="white"/>
<path d="M156.136 278.452C157.585 278.809 159.049 277.931 159.406 276.49C159.76 275.052 158.874 273.597 157.424 273.234C155.973 272.876 154.51 273.756 154.155 275.195C153.798 276.637 154.686 278.092 156.138 278.452L156.136 278.452Z" fill="white"/>
<path d="M87.7462 36.1318C88.3839 36.2906 89.0144 35.9496 89.1561 35.376C89.2981 34.8007 88.8953 34.2087 88.2624 34.0511C87.6254 33.896 86.9946 34.2317 86.8525 34.807C86.7104 35.3822 87.1108 35.977 87.7462 36.1318Z" fill="white"/>
<path d="M128.766 470.457C128.129 470.302 127.499 470.636 127.357 471.213C127.213 471.788 127.614 472.379 128.25 472.538C128.886 472.696 129.518 472.359 129.658 471.783C129.802 471.208 129.403 470.614 128.767 470.455L128.766 470.457Z" fill="white"/>
<path d="M105.413 495.469C104.778 495.309 104.146 495.646 104.004 496.222C103.862 496.798 104.261 497.39 104.896 497.548C105.532 497.706 106.165 497.369 106.305 496.795C106.447 496.22 106.05 495.626 105.412 495.469L105.413 495.469Z" fill="white"/>
<path d="M49.623 225.769C48.9873 225.609 48.3556 225.948 48.2131 226.525C48.0703 227.096 48.4707 227.691 49.1068 227.85C49.7429 228.008 50.375 227.667 50.5162 227.095C50.6603 226.519 50.2591 225.927 49.6234 225.767L49.623 225.769Z" fill="white"/>
<path d="M320.895 537.492C319.446 537.128 317.981 538.006 317.622 539.448C317.265 540.885 318.15 542.344 319.598 542.706C321.047 543.063 322.512 542.191 322.872 540.751C323.229 539.31 322.345 537.852 320.895 537.492Z" fill="white"/>
<path d="M45.5279 240.717C44.8918 240.559 44.2606 240.896 44.1165 241.473C43.9737 242.044 44.374 242.639 45.0102 242.798C45.6479 242.956 46.2775 242.619 46.4208 242.045C46.5612 241.47 46.1625 240.875 45.5279 240.717Z" fill="white"/>
<path d="M264.129 220.47C263.943 221.094 264.254 221.739 264.829 221.907C265.402 222.076 266.012 221.709 266.2 221.082C266.385 220.458 266.07 219.812 265.496 219.647C264.928 219.479 264.312 219.844 264.127 220.468L264.129 220.47Z" fill="white"/>
<path d="M363.46 331.262C363.275 331.886 363.587 332.531 364.16 332.698C364.733 332.867 365.343 332.5 365.529 331.875C365.716 331.251 365.401 330.607 364.833 330.436C364.258 330.269 363.645 330.636 363.46 331.26L363.46 331.262Z" fill="white"/>
<path d="M125.772 287.156C125.586 287.779 125.895 288.424 126.469 288.591C127.045 288.761 127.653 288.394 127.842 287.767C128.023 287.142 127.713 286.501 127.142 286.329C126.569 286.16 125.957 286.53 125.772 287.154L125.772 287.156Z" fill="white"/>
<path d="M186.634 517.384C186.448 518.007 186.763 518.65 187.334 518.82C187.905 518.991 188.518 518.619 188.704 517.995C188.887 517.371 188.576 516.726 188.007 516.56C187.433 516.39 186.82 516.76 186.634 517.384Z" fill="white"/>
<path d="M265.141 441.091C264.5 440.949 263.877 441.3 263.75 441.88C263.622 442.457 264.037 443.042 264.68 443.183C265.322 443.321 265.941 442.97 266.066 442.393C266.195 441.816 265.778 441.231 265.141 441.091Z" fill="white"/>
<path d="M40.6699 458.589C40.0306 458.448 39.4049 458.798 39.2805 459.378C39.152 459.96 39.5652 460.539 40.2093 460.681C40.8497 460.823 41.4715 460.469 41.597 459.891C41.7239 459.309 41.3092 458.729 40.6699 458.589Z" fill="white"/>
<path d="M78.6417 216.257C78.4572 216.881 78.77 217.526 79.3418 217.693C79.9148 217.863 80.5247 217.495 80.7108 216.872C80.8969 216.248 80.5837 215.604 80.0147 215.433C79.4393 215.266 78.8262 215.633 78.6417 216.257Z" fill="white"/>
<path d="M113.384 68.7651C114.005 68.9624 114.653 68.6657 114.833 68.0971C115.017 67.5315 114.659 66.9083 114.039 66.7094C113.419 66.5089 112.77 66.8089 112.59 67.3774C112.405 67.9447 112.764 68.5678 113.384 68.7651Z" fill="white"/>
</g>
<path d="M421.717 794.053C312.161 797.532 -53.7376 800.602 -84.0759 798.702C-93.0401 813.526 -120.692 851.74 -147.439 895.568C-116.75 886.007 -86.7915 852.88 -86.7915 852.88C-86.7915 852.88 -102.676 932.409 -29.7941 956.033C43.0878 979.658 77.2512 894.808 77.2512 894.808C77.2512 894.808 83.2663 983.312 149.666 984.628C251.485 981.646 257.412 893.551 257.412 893.551C257.412 893.551 305.533 983.108 381.101 977.611C456.669 972.114 446.362 851.594 446.362 851.594C446.362 851.594 496.059 912.059 544.531 910.363C518.222 877.587 478.919 839.051 421.717 794.082V794.053Z" fill="#003D31"/>
<path d="M366.443 558.714C366.034 559.036 30.4153 562.428 24.663 566.58C-9.32523 643.301 -197.866 812.035 -145.249 871.067C-113.217 907.03 -54.2924 841.887 -54.2924 841.887C-54.2924 841.887 -68.3374 912.176 -3.92332 933.052C60.4907 953.928 90.683 878.932 90.683 878.932C90.683 878.932 95.9973 957.144 154.688 958.314C244.681 955.682 249.937 877.821 249.937 877.821C249.937 877.821 292.481 956.969 359.26 952.115C426.039 947.262 416.958 840.747 416.958 840.747C416.958 840.747 479.971 917.41 528.617 884.575C591.337 842.267 383.32 588.216 366.472 558.714H366.443Z" fill="#034F40"/>
<path d="M457.487 686.603C416.286 625.582 373.684 571.404 366.443 558.714C366.034 559.036 30.4152 562.428 24.6629 566.58C7.78559 604.648 -47.1386 665.376 -91.7554 724.115C-53.1537 714.291 -14.114 669.411 -14.114 669.411C-14.114 669.411 -28.1006 768.879 35.9631 773.47C100.027 778.06 129.08 691.047 129.08 691.047C129.08 691.047 130.92 780.838 217.438 783.03C273.997 781.539 289.035 688.328 289.035 688.328C289.035 688.328 318.731 784.346 381.889 762.739C445.019 741.132 431.12 659.937 431.12 659.937C431.12 659.937 442.186 674.615 457.545 686.573L457.487 686.603Z" fill="#003D31"/>
<path d="M296.744 426.47C265.675 489.42 92.8438 354.514 54.972 450.767C17.1003 547.019 -138.241 663.534 -87.755 700.637C-48.5693 729.437 13.2168 658.388 13.2168 658.388C13.2168 658.388 1.06977 744.728 56.6656 748.734C112.291 752.71 137.49 677.188 137.49 677.188C137.49 677.188 139.066 755.137 214.197 757.038C263.31 755.751 276.333 674.849 276.333 674.849C276.333 674.849 302.116 758.207 356.924 739.436C411.731 720.665 399.643 650.201 399.643 650.201C399.643 650.201 438.595 701.924 468.583 681.895C539.479 634.529 339.433 500.355 296.715 426.47H296.744Z" fill="#007359"/>
<path d="M296.744 426.47C265.675 489.42 92.8437 354.514 54.972 450.767C42.387 482.754 16.8375 516.962 -9.82166 549.768C10.6764 547.312 28.6341 538.189 28.6341 538.189C28.6341 538.189 8.80762 590.029 54.0376 597.572C99.2676 605.116 122.189 554.884 122.189 554.884C122.189 554.884 133.635 606.899 174.398 602.747C237.556 600.73 237.615 545.791 237.615 545.791C237.615 545.791 264.566 596.081 310.789 587.543C357.011 579.006 351.405 526.962 351.405 526.962C351.405 526.962 385.598 562.252 416.228 554.68C371.232 508.776 316.775 461 296.773 426.411L296.744 426.47Z" fill="#003D31"/>
<path d="M221.029 226.188C258.2 290.687 281.706 359.543 378.269 450.358C391.175 462.491 443.705 504.741 405.278 533.102C375.436 555.089 335.112 513.454 335.112 513.454C335.112 513.454 340.193 560.557 298.35 568.275C256.507 575.994 232.096 530.47 232.096 530.47C232.096 530.47 232.038 580.175 174.865 582.017C137.986 585.76 127.62 538.686 127.62 538.686C127.62 538.686 106.889 584.181 65.951 577.339C25.0133 570.498 42.9418 523.57 42.9418 523.57C42.9418 523.57 -3.13497 546.932 -28.6261 525.646C-47.7226 509.682 -2.84297 466.497 35.4668 426.47C73.7765 386.443 143.154 266.039 165.93 210.633C188.706 155.226 207.977 203.528 221.029 226.188Z" fill="#034F40"/>
<path d="M196.789 709.887C205.296 711.089 207.911 713.704 209.113 722.211C209.264 723.263 210.766 723.263 210.887 722.211C212.089 713.704 214.704 711.089 223.211 709.887C224.263 709.736 224.263 708.234 223.211 708.113C214.704 706.911 212.089 704.296 210.887 695.789C210.736 694.737 209.234 694.737 209.113 695.789C207.911 704.296 205.296 706.911 196.789 708.113C195.737 708.264 195.737 709.766 196.789 709.887Z" fill="white"/>
<path d="M205.98 319.297C211.692 320.104 213.448 321.861 214.256 327.573C214.357 328.279 215.366 328.279 215.447 327.573C216.254 321.861 218.01 320.104 223.722 319.297C224.429 319.196 224.429 318.187 223.722 318.106C218.01 317.299 216.254 315.543 215.447 309.831C215.346 309.124 214.336 309.124 214.256 309.831C213.448 315.543 211.692 317.299 205.98 318.106C205.274 318.207 205.274 319.216 205.98 319.297Z" fill="white"/>
<path d="M33.6008 493.181C38.9957 493.943 40.6542 495.602 41.4167 500.996C41.512 501.664 42.4652 501.664 42.5414 500.996C43.3039 495.602 44.9624 493.943 50.3573 493.181C51.0245 493.085 51.0245 492.132 50.3573 492.056C44.9624 491.293 43.3039 489.635 42.5414 484.24C42.4461 483.573 41.493 483.573 41.4167 484.24C40.6542 489.635 38.9957 491.293 33.6008 492.056C32.9336 492.151 32.9336 493.104 33.6008 493.181Z" fill="white"/>
<path d="M292.5 785.441C297.895 786.204 299.554 787.862 300.316 793.257C300.412 793.924 301.365 793.924 301.441 793.257C302.204 787.862 303.862 786.204 309.257 785.441C309.924 785.346 309.924 784.393 309.257 784.316C303.862 783.554 302.204 781.895 301.441 776.5C301.346 775.833 300.393 775.833 300.316 776.5C299.554 781.895 297.895 783.554 292.5 784.316C291.833 784.412 291.833 785.365 292.5 785.441Z" fill="white"/>
<path d="M125.268 814.524L130.576 807.411L123.474 812.737L121.491 799L119.526 812.737L112.405 807.411L117.732 814.524L104 816.5L117.732 818.476L112.405 825.589L119.526 820.282L121.491 834L123.474 820.282L130.576 825.589L125.268 818.476L139 816.5L125.268 814.524Z" fill="#F9BF3F"/>
<path d="M384.203 616.864L393.225 604.589L381.138 613.788L377.784 590L374.401 613.788L362.314 604.589L371.365 616.864L348 620.292L371.365 623.719L362.314 636.024L374.401 626.825L377.784 650.584L381.138 626.825L393.225 636.024L384.203 623.719L407.539 620.292L384.203 616.864Z" fill="#F9BF3F"/>
<path d="M59.0544 677.895L63.8028 671.546L57.4412 676.304L55.6758 664L53.8951 676.304L47.5335 671.546L52.2971 677.895L40 679.668L52.2971 681.441L47.5335 687.805L53.8951 683.047L55.6758 695.336L57.4412 683.047L63.8028 687.805L59.0544 681.441L71.3363 679.668L59.0544 677.895Z" fill="#F9BF3F"/>
<path d="M355.214 486.618L358.696 481.962L354.031 485.451L352.737 476.428L351.431 485.451L346.766 481.962L350.259 486.618L341.241 487.918L350.259 489.218L346.766 493.885L351.431 490.396L352.737 499.408L354.031 490.396L358.696 493.885L355.214 489.218L364.221 487.918L355.214 486.618Z" fill="#F9BF3F"/>
</g>
<defs>
<clipPath id="clip0_29_336">
<rect width="390" height="844" fill="white"/>
</clipPath>
<clipPath id="clip1_29_336">
<rect width="802.857" height="802.857" fill="white" transform="translate(840.295 -126.205) rotate(105)"/>
</clipPath>
</defs>
</svg>
