<svg xmlns="http://www.w3.org/2000/svg" width="28" height="26" fill="none" viewBox="0 0 28 26"><path fill="#fff" d="M27.892 14.645c-.069-.136-.239-.204-.375-.238-.784 0-7.527-.273-7.527-8.106a.45.45 0 0 0-.443-.443.45.45 0 0 0-.443.443c0 7.833-6.743 8.106-7.492 8.106a.387.387 0 0 0-.273.102c-.068.034-.102.102-.136.136a.505.505 0 0 0 0 .443.473.473 0 0 0 .409.238h.034c.783 0 7.492.273 7.492 8.106a.45.45 0 0 0 .443.443.45.45 0 0 0 .443-.443c0-7.8 6.71-8.106 7.493-8.106.17 0 .306-.102.409-.238a.419.419 0 0 0-.034-.443zm-8.345 5.45c-.988-3.236-3.406-4.632-5.313-5.245 1.907-.614 4.325-2.01 5.313-5.246.988 3.236 3.406 4.632 5.313 5.246-1.907.613-4.325 2.009-5.313 5.245zM13.928 5.79c.238 0 .442-.204.442-.477a.45.45 0 0 0-.442-.443c-.41 0-4.088-.136-4.088-4.427A.45.45 0 0 0 9.398 0a.45.45 0 0 0-.443.443c0 4.291-3.678 4.427-4.087 4.427h-.034c-.239.034-.409.205-.409.443a.45.45 0 0 0 .443.443c.443 0 4.087.136 4.087 4.428a.45.45 0 0 0 .443.442c.204.034.408-.17.408-.408 0-4.292 3.679-4.428 4.087-4.428h.034zM9.364 7.73C8.819 6.437 7.83 5.721 6.91 5.313a4.576 4.576 0 0 0 2.454-2.418c.545 1.294 1.532 2.01 2.452 2.418-.988.409-1.907 1.192-2.452 2.418zm.646 12.5c-.408 0-4.086-.136-4.086-4.427a.45.45 0 0 0-.443-.443.45.45 0 0 0-.443.443c0 4.291-3.678 4.428-4.087 4.428H.917c-.238.034-.409.204-.409.442a.45.45 0 0 0 .443.443c.443 0 4.087.137 4.087 4.428a.45.45 0 0 0 .443.443c.204.068.409-.137.409-.41 0-4.29 3.678-4.427 4.087-4.427h.034c.238 0 .443-.204.443-.476a.45.45 0 0 0-.443-.443zm-4.563 2.896c-.58-1.295-1.533-2.01-2.452-2.419.987-.408 1.907-1.192 2.452-2.418.545 1.295 1.533 2.01 2.452 2.418-.988.41-1.907 1.193-2.452 2.419z"/></svg>