<svg width="27" height="26" viewBox="0 0 27 26" fill="none" xmlns="http://www.w3.org/2000/svg">
<g id="Colour">
<path id="Vector" d="M13.2498 25.9999C11.9293 26.0015 10.6161 25.8052 9.35375 25.4177C8.7875 25.2459 8.27129 24.9395 7.84928 24.5247C7.42728 24.1099 7.11204 23.599 6.93054 23.0358C6.74218 22.4655 6.69275 21.8584 6.78636 21.265C6.87997 20.6717 7.11392 20.1093 7.46874 19.6246L8.77869 17.84C9.03926 17.4982 9.18411 17.0821 9.19222 16.6524C9.20034 16.2226 9.0713 15.8014 8.82382 15.4499C8.57273 15.0782 8.20963 14.7962 7.78731 14.645C7.36499 14.4938 6.90545 14.4811 6.47546 14.609L3.49601 15.5199C3.10062 15.6406 2.68244 15.6671 2.275 15.5971C1.86755 15.527 1.48219 15.3625 1.1498 15.1167C0.817416 14.8708 0.547263 14.5505 0.361007 14.1815C0.17475 13.8124 0.077574 13.4048 0.0772705 12.9914C0.0772705 5.82782 5.98653 0.000169453 13.2498 0.000169453C16.7156 -0.0174549 20.0469 1.34035 22.513 3.77573C24.979 6.2111 26.3784 9.52519 26.4042 12.991C26.3809 16.4592 24.9829 19.7766 22.5168 22.2154C20.0508 24.6542 16.718 26.0152 13.2498 25.9999ZM7.07271 13.7782C7.53969 13.7755 8.00014 13.8879 8.41339 14.1054C8.82663 14.3229 9.17995 14.6389 9.44213 15.0253C9.77547 15.5062 9.94907 16.0798 9.93834 16.6648C9.92761 17.2498 9.73309 17.8166 9.38233 18.285L8.07501 20.0707C7.78814 20.4572 7.59915 20.9074 7.52422 21.3828C7.44929 21.8583 7.49065 22.3448 7.64475 22.8008C7.78926 23.2497 8.04035 23.657 8.37654 23.9877C8.71274 24.3185 9.12404 24.5629 9.57527 24.7001C10.7658 25.0654 12.0044 25.2504 13.2498 25.2488C16.5188 25.2643 19.6605 23.9825 21.9856 21.6845C24.3106 19.3865 25.6292 16.26 25.652 12.991C25.6262 9.72469 24.3061 6.60192 21.9811 4.30761C19.6561 2.01329 16.5161 0.734738 13.2498 0.752367C6.40099 0.752367 0.829468 6.24266 0.829468 12.991C0.82984 13.2868 0.899506 13.5784 1.03288 13.8424C1.16626 14.1065 1.35964 14.3356 1.59752 14.5114C1.8354 14.6873 2.11116 14.8049 2.4027 14.855C2.69425 14.905 2.99346 14.8861 3.27637 14.7997L6.26861 13.8861C6.53079 13.8152 6.80111 13.7789 7.07271 13.7782Z" fill="#132F6B"/>
<path id="Vector_2" d="M13.2317 7.29798C12.7462 7.2962 12.2722 7.15048 11.8695 6.87927C11.4669 6.60806 11.1537 6.22353 10.9696 5.77432C10.7855 5.32511 10.7388 4.83139 10.8353 4.35562C10.9318 3.87984 11.1673 3.44337 11.5119 3.10141C11.8565 2.75945 12.2947 2.52736 12.7712 2.43449C13.2477 2.34162 13.7411 2.39215 14.1888 2.57968C14.6366 2.76721 15.0188 3.08332 15.2869 3.48803C15.555 3.89274 15.6971 4.36788 15.6951 4.85334C15.6946 5.17583 15.6305 5.49503 15.5063 5.79264C15.382 6.09024 15.2003 6.36038 14.9714 6.58753C14.7425 6.81468 14.471 6.99438 14.1724 7.1163C13.8739 7.23822 13.5542 7.29997 13.2317 7.29798ZM13.2317 3.14134C12.8958 3.14313 12.5679 3.24425 12.2894 3.43198C12.0109 3.6197 11.7941 3.88564 11.6664 4.19631C11.5387 4.50698 11.5057 4.84849 11.5717 5.17785C11.6376 5.5072 11.7996 5.80968 12.0371 6.04719C12.2746 6.28471 12.5771 6.44664 12.9064 6.51261C13.2358 6.57858 13.5773 6.54563 13.888 6.41792C14.1986 6.2902 14.4646 6.07342 14.6523 5.79488C14.84 5.51634 14.9412 5.18848 14.9429 4.85259C14.9439 4.6276 14.9003 4.40465 14.8146 4.19661C14.7289 3.98856 14.6029 3.79954 14.4438 3.64045C14.2847 3.48135 14.0957 3.35534 13.8877 3.26968C13.6796 3.18401 13.4567 3.1404 13.2317 3.14134Z" fill="#6CDD90"/>
<path id="Vector_3" d="M20.1955 11.3076C19.7101 11.3058 19.236 11.1601 18.8334 10.8889C18.4307 10.6177 18.1176 10.2332 17.9335 9.78396C17.7494 9.33475 17.7026 8.84104 17.7991 8.36526C17.8957 7.88948 18.1311 7.45301 18.4757 7.11105C18.8203 6.76909 19.2586 6.537 19.7351 6.44413C20.2116 6.35126 20.7049 6.40179 21.1527 6.58932C21.6005 6.77685 21.9826 7.09296 22.2507 7.49767C22.5188 7.90239 22.6609 8.37752 22.659 8.86299C22.6585 9.18547 22.5943 9.50468 22.4701 9.80228C22.3459 10.0999 22.1641 10.37 21.9352 10.5972C21.7063 10.8243 21.4348 11.004 21.1362 11.1259C20.8377 11.2479 20.518 11.3096 20.1955 11.3076ZM20.1955 7.15099C19.8597 7.15277 19.5318 7.25388 19.2533 7.44157C18.9748 7.62926 18.758 7.89516 18.6303 8.20578C18.5025 8.51641 18.4695 8.85788 18.5355 9.18722C18.6014 9.51655 18.7632 9.81903 19.0007 10.0566C19.2381 10.2941 19.5405 10.4561 19.8698 10.5222C20.1991 10.5882 20.5406 10.5554 20.8513 10.4278C21.162 10.3002 21.428 10.0835 21.6158 9.80507C21.8036 9.52663 21.9048 9.19885 21.9068 8.86299C21.908 8.63784 21.8645 8.41469 21.779 8.20643C21.6934 7.99816 21.5675 7.80892 21.4083 7.64962C21.2492 7.49033 21.0601 7.36415 20.8519 7.27837C20.6438 7.19259 20.4207 7.14891 20.1955 7.14986V7.15099Z" fill="#4C99F7"/>
<path id="Vector_4" d="M20.1955 19.6355C19.7101 19.6337 19.236 19.488 18.8334 19.2168C18.4307 18.9456 18.1176 18.5611 17.9335 18.1118C17.7494 17.6626 17.7026 17.1689 17.7991 16.6931C17.8957 16.2174 18.1311 15.7809 18.4757 15.4389C18.8203 15.097 19.2586 14.8649 19.7351 14.772C20.2116 14.6791 20.7049 14.7297 21.1527 14.9172C21.6005 15.1047 21.9826 15.4208 22.2507 15.8256C22.5188 16.2303 22.6609 16.7054 22.659 17.1909C22.6585 17.5134 22.5943 17.8326 22.4701 18.1302C22.3459 18.4278 22.1641 18.6979 21.9352 18.9251C21.7063 19.1522 21.4348 19.3319 21.1362 19.4538C20.8377 19.5757 20.518 19.6375 20.1955 19.6355ZM20.1955 15.4789C19.8596 15.4807 19.5318 15.5818 19.2532 15.7695C18.9747 15.9572 18.7579 16.2232 18.6302 16.5338C18.5025 16.8445 18.4695 17.186 18.5355 17.5154C18.6015 17.8447 18.7634 18.1472 19.0009 18.3847C19.2384 18.6222 19.5409 18.7842 19.8703 18.8501C20.1996 18.9161 20.5411 18.8832 20.8518 18.7554C21.1625 18.6277 21.4284 18.4109 21.6161 18.1324C21.8039 17.8539 21.905 17.526 21.9068 17.1901C21.9077 16.9651 21.8641 16.7422 21.7784 16.5341C21.6928 16.3261 21.5668 16.1371 21.4077 15.978C21.2486 15.8189 21.0596 15.6929 20.8515 15.6072C20.6435 15.5215 20.4205 15.4779 20.1955 15.4789Z" fill="#E94062"/>
<path id="Vector_5" d="M12.8109 23.1069C12.3254 23.1052 11.8514 22.9594 11.4487 22.6882C11.0461 22.417 10.7329 22.0325 10.5488 21.5833C10.3647 21.1341 10.318 20.6404 10.4145 20.1646C10.511 19.6888 10.7464 19.2523 11.091 18.9104C11.4356 18.5684 11.8739 18.3363 12.3504 18.2434C12.8269 18.1506 13.3202 18.2011 13.768 18.3886C14.2158 18.5762 14.5979 18.8923 14.866 19.297C15.1342 19.7017 15.2762 20.1768 15.2743 20.6623C15.2739 20.9848 15.2097 21.304 15.0855 21.6017C14.9613 21.8993 14.7796 22.1694 14.5506 22.3966C14.3217 22.6238 14.0502 22.8035 13.7516 22.9254C13.4531 23.0473 13.1333 23.109 12.8109 23.1069ZM12.8109 18.9507C12.475 18.9525 12.1471 19.0536 11.8686 19.2413C11.59 19.429 11.3732 19.695 11.2455 20.0056C11.1178 20.3163 11.0849 20.6578 11.1508 20.9872C11.2168 21.3165 11.3787 21.619 11.6163 21.8565C11.8538 22.094 12.1562 22.256 12.4856 22.3219C12.815 22.3879 13.1565 22.355 13.4671 22.2273C13.7778 22.0995 14.0437 21.8828 14.2315 21.6042C14.4192 21.3257 14.5203 20.9978 14.5221 20.6619C14.523 20.4369 14.4794 20.214 14.3938 20.0059C14.3081 19.7979 14.1821 19.6089 14.023 19.4498C13.8639 19.2907 13.6749 19.1647 13.4668 19.079C13.2588 18.9933 13.0358 18.9497 12.8109 18.9507Z" fill="#FAE170"/>
<path id="Vector_6" d="M6.43335 11.7273C5.94789 11.7255 5.47385 11.5798 5.07121 11.3086C4.66856 11.0374 4.35539 10.6528 4.17129 10.2036C3.9872 9.75443 3.94046 9.26072 4.03697 8.78494C4.13349 8.30916 4.36893 7.87269 4.71352 7.53073C5.05811 7.18877 5.49637 6.95668 5.97288 6.86381C6.44938 6.77094 6.94272 6.82147 7.39051 7.009C7.8383 7.19653 8.22041 7.51264 8.48853 7.91735C8.75665 8.32207 8.89873 8.7972 8.8968 9.28266C8.89636 9.60516 8.8322 9.92439 8.70801 10.222C8.58383 10.5196 8.40206 10.7898 8.17315 11.017C7.94423 11.2441 7.67269 11.4238 7.37412 11.5457C7.07555 11.6676 6.75584 11.7293 6.43335 11.7273ZM6.43335 7.57066C6.09746 7.57245 5.7696 7.67357 5.49106 7.8613C5.21252 8.04902 4.99574 8.31496 4.86803 8.62563C4.74031 8.9363 4.70736 9.27781 4.77333 9.60717C4.8393 9.93652 5.00123 10.239 5.23875 10.4765C5.47626 10.714 5.77874 10.876 6.1081 10.9419C6.43745 11.0079 6.77896 10.975 7.08963 10.8472C7.4003 10.7195 7.66624 10.5027 7.85397 10.2242C8.04169 9.94566 8.14281 9.61781 8.1446 9.28191C8.14555 9.05692 8.10193 8.83397 8.01627 8.62593C7.9306 8.41788 7.80459 8.22886 7.6455 8.06977C7.4864 7.91068 7.29738 7.78466 7.08934 7.699C6.88129 7.61334 6.65834 7.56972 6.43335 7.57066Z" fill="#A575FF"/>
</g>
</svg>
