<svg width="390" height="844" viewBox="0 0 390 844" fill="none" xmlns="http://www.w3.org/2000/svg">
<g clip-path="url(#clip0_4_516)">
<rect width="390" height="844" fill="#4BBAD9"/>
<path d="M349.647 573.641C349.604 575.267 350.896 576.622 352.536 576.664C354.176 576.706 355.54 575.419 355.584 573.792C355.624 572.164 354.335 570.815 352.695 570.773C351.053 570.727 349.691 572.014 349.647 573.641Z" fill="white"/>
<path d="M56.0011 31.8724C55.9573 33.5008 57.2501 34.8535 58.8899 34.8991C60.5314 34.9411 61.8936 33.6559 61.9338 32.0276C61.9794 30.3992 60.6866 29.0465 59.0469 29.0008C57.4071 28.9625 56.0431 30.2477 56.0011 31.8724Z" fill="white"/>
<path d="M260.324 821.351C261.045 821.339 261.617 820.798 261.604 820.15C261.591 819.5 260.996 818.987 260.28 819C259.561 819.017 258.987 819.552 259 820.201C259.013 820.851 259.606 821.366 260.324 821.351Z" fill="white"/>
<path d="M28.282 769.002C27.5607 769.015 26.9892 769.551 27.0001 770.203C27.0111 770.851 27.6064 771.366 28.324 771.353C29.0434 771.34 29.6168 770.804 29.604 770.154C29.5931 769.506 29.0014 768.989 28.282 769V769.002Z" fill="white"/>
<path d="M354.446 452.382C353.725 452.394 353.153 452.931 353.164 453.583C353.175 454.231 353.771 454.746 354.488 454.733C355.208 454.72 355.781 454.183 355.768 453.533C355.757 452.885 355.166 452.369 354.446 452.38V452.382Z" fill="white"/>
<path d="M45.2802 808C44.5608 808.011 43.9874 808.548 44.0002 809.198C44.013 809.85 44.6046 810.363 45.3222 810.35C46.0417 810.337 46.6169 809.8 46.6023 809.152C46.5895 808.502 45.9997 807.986 45.2784 808H45.2802Z" fill="white"/>
<path d="M355.28 818.002C354.561 818.013 353.987 818.551 354 819.203C354.011 819.849 354.605 820.366 355.324 820.353C356.044 820.341 356.617 819.8 356.604 819.154C356.593 818.502 356 817.989 355.28 818V818.002Z" fill="white"/>
<path d="M112 32.2636C111.982 32.9774 112.494 33.5689 113.151 33.5871C113.805 33.6017 114.349 33.034 114.367 32.3239C114.387 31.6064 113.872 31.015 113.218 31.0003C112.563 30.9839 112.019 31.5498 112 32.2636Z" fill="white"/>
<path d="M52.2519 121.002C51.5325 121.033 50.9719 121.582 51.0011 122.232C51.0303 122.88 51.6366 123.382 52.3578 123.349C53.0773 123.313 53.6342 122.765 53.6032 122.119C53.5758 121.471 52.9677 120.969 52.2519 121.002Z" fill="white"/>
<path d="M362.001 163.264C361.98 163.977 362.497 164.573 363.151 164.587C363.808 164.604 364.351 164.038 364.367 163.324C364.389 162.61 363.872 162.019 363.22 162C362.563 161.984 362.021 162.55 362.001 163.264Z" fill="white"/>
<path d="M320.001 128.264C319.98 128.977 320.497 129.573 321.151 129.587C321.808 129.604 322.351 129.038 322.367 128.324C322.389 127.61 321.872 127.019 321.22 127C320.563 126.984 320.021 127.55 320.001 128.264Z" fill="white"/>
<path d="M16.2766 87.3773C16.9906 87.4065 17.5949 86.9081 17.626 86.2546C17.657 85.5992 17.1038 85.0424 16.3898 85.0096C15.674 84.9731 15.0751 85.4751 15.0404 86.1286C15.0093 86.7821 15.5608 87.3408 16.2766 87.3791V87.3773Z" fill="white"/>
<path d="M342.28 28.0002C341.561 28.0167 340.987 28.5552 341 29.2051C341.013 29.8531 341.606 30.3679 342.324 30.3515C343.044 30.3387 343.617 29.8002 343.604 29.154C343.591 28.5004 342.996 27.9875 342.278 28.0002H342.28Z" fill="white"/>
<path d="M316.955 354.329C317.674 354.319 318.249 353.783 318.236 353.131C318.224 352.485 317.632 351.968 316.913 351.981C316.193 351.994 315.62 352.53 315.631 353.179C315.642 353.828 316.235 354.345 316.955 354.329Z" fill="white"/>
<path d="M97.3223 84.3497C98.0418 84.3387 98.6151 83.802 98.6023 83.1521C98.5896 82.5004 97.9979 81.9875 97.2803 82.0002C96.5609 82.013 95.9857 82.5497 96.0003 83.1978C96.0131 83.8477 96.6029 84.3643 97.3241 84.3497H97.3223Z" fill="white"/>
<path d="M177.285 42.2228C177.327 40.5944 176.034 39.2417 174.394 39.2033C172.755 39.1577 171.392 40.4429 171.349 42.0712C171.307 43.696 172.598 45.0505 174.237 45.0943C175.877 45.1327 177.239 43.8511 177.283 42.2228H177.285Z" fill="white"/>
<path d="M329.934 70.0277C329.978 68.3994 328.685 67.0466 327.045 67.001C325.404 66.959 324.041 68.2442 324.001 69.8726C323.956 71.5009 325.248 72.8537 326.888 72.8993C328.528 72.9376 329.892 71.6525 329.934 70.0277Z" fill="white"/>
<path d="M255.373 22.3239C255.387 21.6101 254.874 21.015 254.219 21.0003C253.561 20.9839 253.017 21.5498 253.001 22.2636C252.98 22.9792 253.494 23.567 254.149 23.5871C254.803 23.6036 255.349 23.0395 255.373 22.3239Z" fill="white"/>
<path d="M40.3726 174.324C40.3872 173.61 39.8741 173.015 39.2185 173C38.5612 172.984 38.017 173.55 38.0006 174.264C37.9805 174.979 38.4936 175.567 39.1492 175.587C39.8029 175.604 40.3488 175.039 40.3726 174.324Z" fill="white"/>
<path d="M89.0226 168.893C90.6605 168.864 91.9661 167.521 91.9351 165.892C91.904 164.264 90.5546 162.971 88.9148 163C87.2751 163.032 85.9695 164.373 86.0005 166.002C86.0297 167.632 87.3828 168.924 89.0226 168.893Z" fill="white"/>
<path d="M167.18 767.653C167.901 767.64 168.473 767.103 168.462 766.451C168.451 765.802 167.855 765.289 167.138 765.301C166.418 765.314 165.845 765.851 165.858 766.501C165.869 767.149 166.46 767.665 167.18 767.655V767.653Z" fill="white"/>
<path d="M113.326 818.351C114.045 818.339 114.619 817.802 114.608 817.15C114.595 816.5 114.001 815.987 113.284 816C112.564 816.013 111.991 816.55 112 817.2C112.013 817.851 112.605 818.366 113.324 818.353L113.326 818.351Z" fill="white"/>
<path d="M317.477 537.232C319.117 537.207 320.42 535.861 320.391 534.231C320.362 532.606 319.009 531.312 317.371 531.339C315.733 531.372 314.427 532.712 314.455 534.341C314.486 535.969 315.837 537.263 317.477 537.232Z" fill="white"/>
<path d="M274.324 732.351C275.043 732.339 275.617 731.802 275.606 731.15C275.595 730.504 275.001 729.987 274.282 730C273.561 730.013 272.989 730.55 273 731.198C273.015 731.848 273.606 732.364 274.324 732.351Z" fill="white"/>
<path d="M86.0207 773.891C87.6586 773.862 88.9642 772.519 88.935 770.89C88.9058 769.264 87.5527 767.971 85.9148 768C84.2732 768.03 82.9713 769.373 83.0005 771.002C83.0315 772.63 84.3809 773.921 86.0207 773.893V773.891Z" fill="white"/>
<path d="M312.873 773.932C314.502 773.976 315.855 772.684 315.901 771.044C315.943 769.403 314.657 768.041 313.028 768.001C311.4 767.956 310.046 769.248 310.001 770.887C309.962 772.527 311.248 773.89 312.873 773.932Z" fill="white"/>
<path d="M138.352 720.28C138.339 719.559 137.799 718.987 137.151 719C136.501 719.013 135.987 719.608 136 720.324C136.017 721.043 136.552 721.616 137.202 721.603C137.852 721.591 138.369 720.997 138.352 720.28Z" fill="white"/>
<path d="M296.002 804.324C296.013 805.043 296.552 805.616 297.203 805.603C297.85 805.592 298.367 804.999 298.354 804.28C298.341 803.561 297.801 802.987 297.154 803C296.502 803.011 295.989 803.604 296 804.324H296.002Z" fill="white"/>
<path d="M368 775.324C368.013 776.043 368.55 776.616 369.202 776.605C369.848 776.594 370.365 776.001 370.352 775.282C370.339 774.561 369.803 773.989 369.154 774C368.504 774.015 367.987 774.606 368 775.324Z" fill="white"/>
<path d="M356.002 100.02C356.031 101.657 357.375 102.963 359.004 102.933C360.631 102.904 361.924 101.552 361.895 99.914C361.866 98.2729 360.522 96.9713 358.893 97.0005C357.264 97.0315 355.973 98.3806 356 100.02H356.002Z" fill="white"/>
<path d="M342.307 710.044C343.021 710.063 343.616 709.548 343.631 708.894C343.647 708.239 343.085 707.697 342.371 707.677C341.657 707.657 341.063 708.171 341.043 708.823C341.03 709.48 341.593 710.026 342.307 710.044Z" fill="white"/>
<path d="M205.367 734.347C205.399 733.633 204.901 733.031 204.247 733.002C203.595 732.967 203.037 733.524 203.002 734.237C202.965 734.951 203.468 735.554 204.121 735.583C204.775 735.618 205.334 735.061 205.367 734.347Z" fill="white"/>
</g>
<defs>
<clipPath id="clip0_4_516">
<rect width="390" height="844" fill="white"/>
</clipPath>
</defs>
</svg>
