<svg xmlns="http://www.w3.org/2000/svg" width="27" height="26" fill="none" viewBox="0 0 27 26"><g fill="#fff"><path d="M18.009 21.532c-.2 0-.397-.05-.573-.143l-1.132-.593a.407.407 0 1 1 .377-.72l1.132.593a.412.412 0 0 0 .44-.032.405.405 0 0 0 .163-.402l-.764-4.44a1.224 1.224 0 0 1 .354-1.085l3.236-3.144a.402.402 0 0 0 .105-.422.407.407 0 0 0-.335-.282l-4.472-.648a1.228 1.228 0 0 1-.925-.669l-2-4.04a.43.43 0 0 0-.747 0l-2 4.04a1.228 1.228 0 0 1-.925.67l-4.473.647a.407.407 0 0 0-.336.282.402.402 0 0 0 .105.422l3.236 3.144a1.224 1.224 0 0 1 .355 1.085l-.764 4.44a.402.402 0 0 0 .147.39.406.406 0 0 1-.51.632 1.206 1.206 0 0 1-.438-1.16l.764-4.44a.413.413 0 0 0-.12-.365l-3.236-3.144a1.225 1.225 0 0 1 .68-2.09l4.474-.648a.416.416 0 0 0 .314-.226l2-4.038a1.23 1.23 0 0 1 2.203 0l2 4.038a.415.415 0 0 0 .314.226l4.473.648a1.225 1.225 0 0 1 .68 2.091l-3.237 3.144a.412.412 0 0 0-.119.366l.764 4.438a1.228 1.228 0 0 1-1.21 1.435z"/><path d="M1.603 25.998a1.358 1.358 0 0 1-1.001-.36c-1.788-1.784 3.698-8.528 5.42-10.553a.407.407 0 1 1 .62.529c-4.998 5.87-6.006 8.911-5.467 9.45.487.488 3.062-.279 8.153-4.39a.408.408 0 0 1 .578.057.407.407 0 0 1-.067.576c-2.34 1.889-6.161 4.69-8.236 4.69zm14.114-10.156a.407.407 0 0 1-.287-.694C22.892 7.681 26.213 1.835 25.308.93c-.513-.513-3.4.407-8.973 5.064a.407.407 0 1 1-.521-.624c2.47-2.065 8.4-6.685 10.069-5.012 1.8 1.797-3.608 9.09-9.878 15.365a.406.406 0 0 1-.288.119z"/><path d="M11.738 22.43a.734.734 0 0 1-.189-.026.682.682 0 0 1-.496-.517l-.311-1.472-1.475-.532a.675.675 0 0 1-.451-.578.702.702 0 0 1 .356-.673l1.422-.825.15-1.537a.726.726 0 0 1 1.176-.484l1.19.986 1.594-.417a.704.704 0 0 1 .728.227.676.676 0 0 1 .086.728l-.675 1.418.816 1.263a.681.681 0 0 1 .011.719.717.717 0 0 1-.677.357l-1.626-.104-1.082 1.219a.73.73 0 0 1-.547.247zm-1.942-3.22l1.287.464a.678.678 0 0 1 .439.5l.28 1.326.98-1.106a.75.75 0 0 1 .596-.244l1.477.095-.735-1.138a.68.68 0 0 1-.041-.664l.587-1.235-1.395.366a.718.718 0 0 1-.637-.137l-1.097-.91-.139 1.418a.712.712 0 0 1-.355.546l-1.247.72z"/></g></svg>