<svg width="150" height="142" viewBox="0 0 150 142" fill="none" xmlns="http://www.w3.org/2000/svg">
<path d="M147.352 59.6906H147.392C150.611 56.3317 148.703 50.6558 144 49.9818L143.999 49.9817L103.39 44.1115L103.387 44.1111C102.077 43.9143 100.855 43.372 99.8776 42.5247C99.1834 41.9326 98.5871 41.1917 98.1632 40.3486L98.1619 40.3461L90.7036 25.3295L90.7031 25.3285L89.4008 22.6927L89.399 22.6892L88.6916 21.282L88.6901 21.2792L86.3122 16.4813L86.3108 16.4784L85.603 15.0706L85.6019 15.0685L80.2484 4.30659L80.245 4.29986L79.9963 3.78249C79.9959 3.78155 79.9954 3.78061 79.9949 3.77968C77.867 -0.509506 71.6931 -0.508569 69.567 3.78249L69.5668 3.78298L63.9616 15.0682L63.9604 15.0706L63.2526 16.4784L63.2511 16.4813L60.8732 21.2792L60.8718 21.282L60.1643 22.6892L60.1626 22.6927L58.8602 25.3285L58.8597 25.3295L51.4014 40.3461L51.4002 40.3486C50.9762 41.1918 50.3797 41.9327 49.6855 42.5249C48.7078 43.372 47.4866 43.9143 46.1759 44.1111L46.1729 44.1115L5.56393 49.9817L5.56325 49.9818C0.7813 50.6671 -1.12684 56.5158 2.32837 59.8485L2.33032 59.8504L12.2586 69.5193L12.2595 69.5202L14.0659 71.2712L14.0665 71.2717L15.0691 72.2463L15.0731 72.2501L16.1673 73.2929L16.1708 73.2962L19.8313 76.8456L19.8326 76.8468L22.2336 79.1891L22.2348 79.1903L25.8906 82.7351L25.8941 82.7385L26.9887 83.7818L26.9927 83.7856L27.9989 84.7635L27.9994 84.7639L31.698 88.3515C31.6992 88.3526 31.7004 88.3537 31.7016 88.3549C32.1304 88.7569 32.4787 89.2043 32.7724 89.6667C33.6706 91.081 34.0199 92.7928 33.7213 94.4788C33.7212 94.4796 33.721 94.4804 33.7209 94.4812L33.0581 98.3904L33.0579 98.3917L30.1295 115.411L30.1293 115.412L29.5573 118.688L29.5569 118.69L29.3059 120.097L29.3053 120.101L28.4823 124.898L28.4817 124.902L28.2305 126.309L28.23 126.312L26.7893 134.659L147.352 59.6906ZM147.352 59.6906L147.188 59.8497M147.352 59.6906L147.188 59.8497M147.188 59.8497L137.716 69.0417L137.715 69.0428M147.188 59.8497L137.715 69.0428M137.715 69.0428L135.269 71.43L135.267 71.4318L131.154 75.4089L131.151 75.4117L130.056 76.4554L130.052 76.4594M137.715 69.0428L130.052 76.4594M130.052 76.4594L125.888 80.5094L120.718 85.5373L120.717 85.5376L117.814 88.3573C117.813 88.3576 117.813 88.3578 117.813 88.3581C116.17 89.9432 115.421 92.2235 115.819 94.4785C115.819 94.4793 115.819 94.4801 115.82 94.4808L116.482 98.3904L116.483 98.3917M130.052 76.4594L116.483 98.3917M116.483 98.3917L119.411 115.411L119.411 115.412M116.483 98.3917L119.411 115.412M119.411 115.412L119.983 118.688L119.984 118.69M119.411 115.412L119.984 118.69M119.984 118.69L120.235 120.097L120.235 120.101L121.058 124.898L121.059 124.902M119.984 118.69L121.059 124.902M121.059 124.902L121.31 126.309L121.31 126.312L122.751 134.659L121.059 124.902ZM114.302 140.753L114.302 140.754C118.584 142.997 123.563 139.381 122.751 134.659L114.302 140.753ZM114.302 140.753L85.5439 125.714L85.542 125.713M114.302 140.753L85.542 125.713M85.542 125.713L82.8215 124.303L82.8195 124.302L78.0174 121.79C78.0169 121.79 78.0164 121.789 78.0159 121.789C78.0085 121.784 77.9998 121.779 77.9904 121.773C77.9665 121.758 77.9228 121.732 77.8775 121.708C77.4965 121.507 77.0929 121.356 76.6905 121.255C74.9993 120.764 73.1373 120.938 71.5456 121.778C71.5452 121.779 71.5447 121.779 71.5443 121.779L66.7209 124.302L66.719 124.303L63.9984 125.713L63.9965 125.714M85.542 125.713L63.9965 125.714M63.9965 125.714L35.2385 140.753L35.2381 140.754M63.9965 125.714L35.2381 140.754M35.2381 140.754C30.9565 142.997 25.9774 139.381 26.7892 134.659L35.2381 140.754Z" stroke="white" stroke-width="1.12698"/>
<path d="M120.752 63.7581C122.81 61.731 121.657 58.2344 118.798 57.8272L118.796 57.827L92.9518 54.0755L92.951 54.0754C92.0834 53.9482 91.2543 53.5905 90.5981 53.0148L90.596 53.013C90.1379 52.6071 89.7522 52.1213 89.4685 51.5557L89.4671 51.5528L84.729 41.9708L84.7289 41.9707L83.8915 40.2786L83.8902 40.2759L83.4381 39.3746L83.4366 39.3716L81.9192 36.3011L81.9177 36.2981L81.4658 35.3971L81.4644 35.3944L78.0638 28.5242L78.0584 28.5132L78.0585 28.5131L77.9021 28.1789C76.6343 25.6016 72.9278 25.5953 71.6377 28.1856C71.6375 28.1858 71.6374 28.1861 71.6373 28.1863L68.0785 35.3719L68.0772 35.3745L67.6253 36.2755L67.6238 36.2785L66.1064 39.349L66.1049 39.352L65.6528 40.2533L65.6515 40.256L64.8141 41.9481L64.814 41.9482L60.0759 51.5302L60.0745 51.5331C59.7962 52.0879 59.4112 52.6047 58.935 53.0007C58.2652 53.5652 57.4653 53.9247 56.592 54.0528L56.5912 54.0529L30.7488 57.8041C30.7484 57.8041 30.748 57.8042 30.7476 57.8042C27.8762 58.2335 26.7459 61.7344 28.8145 63.7587C28.8148 63.7589 28.815 63.7591 28.8152 63.7593L35.1391 69.9051L35.1402 69.9062L36.2931 71.033L36.2964 71.0362L36.9278 71.6432L36.9286 71.6438L37.6313 72.3218L37.634 72.3244L39.9444 74.5824L39.9464 74.5843L41.486 76.0739L41.486 76.074L43.8205 78.3333L43.8211 78.3339L44.5225 79.0106L44.5232 79.0113L45.1573 79.6208L45.1587 79.6222L47.5165 81.9047L47.5224 81.9104L47.5224 81.9105C47.7861 82.1734 48.0136 82.4785 48.2051 82.7647L48.2101 82.7722L48.2148 82.7798C48.8131 83.7393 49.0158 84.8727 48.8372 85.9917L48.8362 85.9982L48.8361 85.9982L48.4054 88.5064L48.4054 88.5068L46.5464 99.3768L46.5461 99.3786L46.1834 101.458L46.1833 101.458L46.0251 102.359L46.0246 102.362L45.5037 105.433L45.5032 105.436L45.345 106.337L45.3445 106.34L44.4382 111.67L44.438 111.671C43.9508 114.508 46.9336 116.692 49.5154 115.348L120.752 63.7581ZM120.752 63.7581L120.752 63.7578L120.747 63.7631L114.722 69.6106L114.722 69.6111L113.158 71.1247L113.157 71.1253L110.551 73.6552L110.55 73.6564L109.849 74.3332L109.847 74.3345L107.195 76.9109L107.194 76.9119L103.907 80.1202L103.906 80.121L102.071 81.9055L102.071 81.9057C100.983 82.9638 100.497 84.4814 100.728 85.9881L100.728 85.9881L100.73 85.9982L101.16 88.5064L101.16 88.5068L103.019 99.3768L103.02 99.3786L103.382 101.458L103.382 101.458L103.54 102.359L103.541 102.362L104.062 105.433L104.062 105.436L104.221 106.337L104.221 106.34L105.127 111.67L105.128 111.671C105.615 114.508 102.609 116.692 100.051 115.348L100.05 115.348L81.7325 105.743L81.7323 105.743L80.0095 104.839L80.0078 104.839L76.9538 103.249L76.9296 103.225L76.8479 103.184C76.5942 103.058 76.3375 102.955 76.0778 102.878L76.0756 102.877C74.9358 102.541 73.6964 102.671 72.6384 103.235C72.6374 103.236 72.6364 103.236 72.6354 103.237L69.5578 104.839L69.5561 104.839L67.8333 105.743L67.8332 105.743L49.5166 115.347L120.752 63.7581Z" stroke="white" stroke-width="1.12698"/>
<path d="M98.9236 66.8769L98.9238 66.877C99.4533 66.021 98.9583 64.8351 97.855 64.674C97.8548 64.6739 97.8547 64.6739 97.8545 64.6739L84.735 62.7977L84.7268 62.7966L84.7186 62.7952C84.2462 62.7134 83.7877 62.5204 83.407 62.2045L83.3965 62.1957L83.3966 62.1956C83.1472 61.9782 82.9126 61.6969 82.7588 61.3693L80.3491 56.5988L80.3481 56.5969L79.9163 55.7499L80.4183 55.494L79.9162 55.7499L79.6885 55.3032L79.687 55.3002L78.9139 53.7619L78.9125 53.7589L78.6862 53.3151L78.6848 53.3125L76.9613 49.8879L76.8789 49.7465L76.8701 49.7314L76.8622 49.7157C76.3185 48.6332 74.7229 48.6332 74.1791 49.7156C74.1791 49.7156 74.1791 49.7157 74.179 49.7157L72.3798 53.3113L72.3779 53.3151L72.3779 53.3151L72.1516 53.7589L72.1501 53.7619L71.3771 55.3002L71.3756 55.3032L71.1478 55.7499L70.716 56.5969L70.715 56.5988L68.3053 61.3693C68.1515 61.6969 67.9169 61.9782 67.6674 62.1956L67.6571 62.2046L67.657 62.2045C67.2763 62.5204 66.8178 62.7134 66.3454 62.7952L66.3373 62.7966L66.3291 62.7977L53.2095 64.6739C53.2093 64.6739 53.2092 64.6739 53.209 64.674C51.9676 64.8554 51.505 66.3463 52.3762 67.1689L52.3795 67.1721L52.3795 67.1721L55.5878 70.2512L55.5914 70.2547L56.18 70.8097L56.1881 70.8173L56.188 70.8173L56.5069 71.1301L56.1124 71.5324L56.5069 71.1301L56.8447 71.4613L56.8486 71.4651L58.0271 72.5985L58.0292 72.6005L58.8016 73.3356L58.8037 73.3377L59.9883 74.4769L59.9922 74.4807L59.9922 74.4807L60.3339 74.8158L59.9394 75.2181L60.3339 74.8158L60.6489 75.1247L61.8394 76.248C62.0307 76.409 62.1564 76.5943 62.2401 76.7177L62.2505 76.733L62.2584 76.7446L62.2583 76.7447C62.6113 77.2928 62.7284 77.9304 62.6121 78.5589C62.612 78.5592 62.612 78.5595 62.6119 78.5598L62.385 79.8058L62.3845 79.8089L61.4285 85.2324L61.4283 85.2338L61.2473 86.2767L61.1798 86.7178L61.1777 86.7311L61.1776 86.731L60.9054 88.2657L60.8381 88.7059L60.8365 88.7159L60.8365 88.7159L60.3809 91.3741L60.3801 91.3782C60.17 92.5513 61.4435 93.4985 62.5496 92.9233L62.5509 92.9227L71.845 88.1201L71.8505 88.1172L71.8505 88.1173L72.7354 87.6723L72.7389 87.6705L74.3064 86.8685L98.9236 66.8769ZM98.9236 66.8769L98.6393 67.1495M98.9236 66.8769L98.6393 67.1495M98.6393 67.1495L95.5881 70.0745L95.5868 70.0758L94.7908 70.834L94.7884 70.8363M98.6393 67.1495L94.7884 70.8363M94.7884 70.8363L93.4672 72.1095L93.4637 72.1129M94.7884 70.8363L93.4637 72.1129M93.4637 72.1129L93.1255 72.4446L93.122 72.448L91.7815 73.7402L91.7808 73.7409M93.4637 72.1129L91.7808 73.7409M91.7808 73.7409L90.1201 75.347L90.1179 75.3492L89.1861 76.2405L89.1861 76.2405M91.7808 73.7409L89.1861 76.2405M89.1861 76.2405L89.1811 76.2454M89.1861 76.2405L89.1811 76.2454M89.1811 76.2454C88.5773 76.8375 88.2807 77.6921 88.4284 78.5323L88.429 78.5357M89.1811 76.2454L88.429 78.5357M88.429 78.5357L88.6563 79.7834L88.6568 79.7866L89.6127 85.21L89.613 85.2115L89.794 86.2545L89.8615 86.6955L89.8614 86.6955M88.429 78.5357L89.8614 86.6955M89.8614 86.6955L89.8637 86.7087M89.8614 86.6955L89.8637 86.7087M89.8637 86.7087L90.1359 88.2433L90.2032 88.6836L90.2031 88.6836M89.8637 86.7087L90.2031 88.6836M90.2031 88.6836L90.2048 88.6935M90.2031 88.6836L90.2048 88.6935M90.2048 88.6935L90.6604 91.3517L90.6611 91.3559M90.2048 88.6935L90.6611 91.3559M90.6611 91.3559C90.8691 92.5166 89.6072 93.4624 88.4879 92.8991C88.4872 92.8987 88.4865 92.8983 88.4857 92.898L79.1963 88.0977L79.1963 88.0977M90.6611 91.3559L79.1963 88.0977M79.1963 88.0977L79.1907 88.0949M79.1963 88.0977L79.1907 88.0949M79.1907 88.0949L78.3058 87.6499L78.3023 87.6482L76.734 86.8458L76.6132 86.784M79.1907 88.0949L76.6132 86.784M76.6132 86.784H76.5556M76.6132 86.784H76.5556M76.5556 86.784C76.5464 86.7799 76.5368 86.7757 76.5269 86.7714C76.4644 86.7445 76.3393 86.6918 76.2214 86.6653C75.5971 86.5019 74.9121 86.5577 74.3072 86.8681L76.5556 86.784Z" stroke="white" stroke-width="1.12698"/>
</svg>
