<svg width="154" height="186" viewBox="0 0 154 186" fill="none" xmlns="http://www.w3.org/2000/svg">
<g id="Decorated Tree">
<g id="Tree">
<path id="Vector" d="M115.397 105.695C115.305 105.758 40.9526 106.432 39.6814 107.262C32.1511 122.551 -9.61504 156.185 2.03949 167.946C9.13798 175.112 22.1899 162.133 22.1899 162.133C22.1899 162.133 19.0798 176.141 33.3495 180.304C47.6193 184.467 54.3102 169.518 54.3102 169.518C54.3102 169.518 55.4893 185.108 68.4878 185.34C88.4296 184.816 89.5892 169.295 89.5892 169.295C89.5892 169.295 99.0118 185.069 113.806 184.103C128.604 183.138 126.586 161.905 126.586 161.905C126.586 161.905 140.54 177.179 151.321 170.639C165.217 162.206 119.138 111.575 115.397 105.7V105.695Z" fill="#034F40"/>
<path id="Vector_2" d="M115.397 105.695C115.305 105.758 40.9574 106.432 39.6814 107.262C34.5431 117.699 13.4611 136.67 4.29077 151.41C4.7129 151.915 5.21265 152.356 5.80945 152.74C15.6833 159.052 26.9351 146.384 26.9351 146.384C26.9351 146.384 25.9647 160.945 39.4582 162.91C52.544 164.816 61.889 146.384 61.889 146.384C61.889 146.384 62.447 164.089 80.7682 164.181C92.7187 163.667 94.2277 147.233 94.2277 147.233C94.2277 147.233 102.398 164.21 115.538 159.732C128.677 155.258 121.52 140.241 121.52 140.241C121.52 140.241 135.446 154.773 143.02 150.833C144.237 150.202 145.635 149.057 146.693 147.349C136.188 130.052 117.707 109.329 115.397 105.695Z" fill="#003D31"/>
<path id="Vector_3" d="M114.98 101.071C96.775 101.648 35.9744 102.158 30.9332 101.842C27.071 108.232 2.27721 140.707 13.5775 147.932C22.5635 153.676 32.8012 142.148 32.8012 142.148C32.8012 142.148 31.9182 155.399 44.1986 157.189C56.1103 158.926 64.6159 142.148 64.6159 142.148C64.6159 142.148 65.1205 158.262 81.8017 158.344C92.6751 157.873 94.053 142.92 94.053 142.92C94.053 142.92 101.491 158.368 113.447 154.297C125.402 150.222 118.89 136.559 118.89 136.559C118.89 136.559 131.564 149.785 138.459 146.199C143.675 143.487 152.578 130.581 114.98 101.076V101.071Z" fill="#007359"/>
<path id="Vector_4" d="M114.98 101.071C96.775 101.648 35.9744 102.158 30.9332 101.842C29.4436 104.302 24.8487 110.644 20.4043 117.917C25.5038 116.33 30.4819 110.833 30.4819 110.833C30.4819 110.833 27.8424 124.031 39.953 127.951C52.0637 131.871 57.7405 117.791 57.7405 117.791C57.7405 117.791 58.74 132.478 69.7735 132.696C86.6925 132.201 87.6774 117.582 87.6774 117.582C87.6774 117.582 95.6736 132.444 108.231 131.532C120.788 130.62 119.075 110.62 119.075 110.62C119.075 110.62 127.333 120.654 135.387 120.372C131.016 114.933 124.485 108.538 114.98 101.076V101.071Z" fill="#003D31"/>
<path id="Vector_5" d="M105.795 62.0171C105.727 62.0656 49.9581 62.6333 49.0022 63.3223C43.3545 76.054 12.025 104.055 20.7684 113.851C26.091 119.819 35.8824 109.009 35.8824 109.009C35.8824 109.009 33.5486 120.673 44.2521 124.137C54.9556 127.602 59.9726 115.156 59.9726 115.156C59.9726 115.156 60.8557 128.135 70.6082 128.33C85.5621 127.893 86.4355 114.972 86.4355 114.972C86.4355 114.972 93.5049 128.106 104.601 127.301C115.698 126.495 114.189 108.82 114.189 108.82C114.189 108.82 124.66 121.542 132.743 116.093C143.165 109.072 108.599 66.9128 105.8 62.0171H105.795Z" fill="#034F40"/>
<path id="Vector_6" d="M120.923 83.2398C114.077 73.1136 106.998 64.1229 105.795 62.0171C105.727 62.0705 49.9579 62.6333 49.0021 63.3223C46.1976 69.6396 37.071 79.7172 29.6571 89.4649C36.0715 87.8346 42.5586 80.3868 42.5586 80.3868C42.5586 80.3868 40.2345 96.8934 50.8798 97.6551C61.5251 98.4169 66.3529 83.9773 66.3529 83.9773C66.3529 83.9773 66.6585 98.8778 81.0351 99.2417C90.4334 98.9943 92.9322 83.5261 92.9322 83.5261C92.9322 83.5261 97.8667 99.4601 108.362 95.8744C118.852 92.2888 116.542 78.8148 116.542 78.8148C116.542 78.8148 118.381 81.2505 120.933 83.2349L120.923 83.2398Z" fill="#003D31"/>
<path id="Vector_7" d="M94.2082 40.0761C89.0457 50.5225 60.3266 28.1353 54.0335 44.1081C47.7405 60.0809 21.9278 79.4162 30.3169 85.5734C36.8283 90.3526 47.0952 78.5622 47.0952 78.5622C47.0952 78.5622 45.0767 92.8902 54.3149 93.555C63.558 94.2148 67.7453 81.6821 67.7453 81.6821C67.7453 81.6821 68.0073 94.6175 80.4916 94.9329C88.6526 94.7194 90.8166 81.2939 90.8166 81.2939C90.8166 81.2939 95.101 95.127 104.208 92.012C113.315 88.897 111.307 77.2037 111.307 77.2037C111.307 77.2037 117.779 85.7869 122.762 82.4633C134.543 74.603 101.302 52.3371 94.2033 40.0761H94.2082Z" fill="#007359"/>
<path id="Vector_8" d="M94.2084 40.0761C89.0458 50.5225 60.3268 28.1353 54.0337 44.1081C51.9425 49.4162 47.697 55.0931 43.2671 60.537C46.6732 60.1294 49.6572 58.6156 49.6572 58.6156C49.6572 58.6156 46.3627 67.2182 53.8784 68.4701C61.3942 69.7219 65.203 61.3861 65.203 61.3861C65.203 61.3861 67.105 70.0178 73.8784 69.3289C84.3733 68.9941 84.383 59.8771 84.383 59.8771C84.383 59.8771 88.8614 68.2226 96.5422 66.8058C104.223 65.389 103.291 56.7524 103.291 56.7524C103.291 56.7524 108.973 62.6088 114.063 61.3522C106.586 53.7345 97.5368 45.8063 94.2132 40.0664L94.2084 40.0761Z" fill="#003D31"/>
<path id="Vector_9" d="M81.6269 6.83499C87.8035 17.5385 91.7094 28.965 107.755 44.0354C109.9 46.0489 118.628 53.0601 112.243 57.7666C107.284 61.4153 100.584 54.506 100.584 54.506C100.584 54.506 101.428 62.3226 94.4751 63.6035C87.5221 64.8845 83.4658 57.3299 83.4658 57.3299C83.4658 57.3299 83.4561 65.5783 73.9559 65.884C67.8278 66.505 66.1054 58.6933 66.1054 58.6933C66.1054 58.6933 62.6604 66.243 55.8579 65.1076C49.0554 63.9723 52.0345 56.1848 52.0345 56.1848C52.0345 56.1848 44.378 60.0616 40.1422 56.5293C36.969 53.8801 44.4266 46.7137 50.7924 40.0713C57.1582 33.4289 68.6866 13.4483 72.4712 4.25372C76.2558 -4.94084 79.4581 3.07468 81.6269 6.83499Z" fill="#034F40"/>
</g>
</g>
</svg>
