<svg width="181" height="107" viewBox="0 0 181 107" fill="none" xmlns="http://www.w3.org/2000/svg">
<g id="Group 15">
<g id="Back Hoops">
<path id="Vector" d="M2 91.0004C2 83.4416 41.4098 77.308 90.0224 77.308C138.635 77.308 178.045 83.4356 178.045 91.0004" stroke="#FFE843" stroke-width="4" stroke-miterlimit="10"/>
<path id="Vector_2" d="M17.6482 47.9672C17.6482 42.0256 50.0515 37.2089 90.0222 37.2089C129.993 37.2089 162.396 42.0256 162.396 47.9672" stroke="#FFE843" stroke-width="4" stroke-miterlimit="10"/>
<path id="Vector_3" d="M36.231 9.82421C36.231 5.50448 60.3117 2 90.0224 2C119.733 2 143.814 5.50448 143.814 9.82421" stroke="#FFE843" stroke-width="4" stroke-miterlimit="10"/>
</g>
<g id="Front Hoops">
<path id="Vector_4" d="M162.396 47.9674C162.396 54.4491 129.993 59.7037 90.0222 59.7037C50.0515 59.7037 17.6482 54.4491 17.6482 47.9674" stroke="#FFE843" stroke-width="4" stroke-miterlimit="10"/>
<path id="Vector_5" d="M143.814 9.82422C143.814 14.6839 119.733 18.6265 90.0224 18.6265C60.3117 18.6265 36.231 14.6839 36.231 9.82422" stroke="#FFE843" stroke-width="4" stroke-miterlimit="10"/>
<path id="Vector_6" d="M178.045 91.0004C178.045 98.5591 138.635 104.693 90.0224 104.693C41.4098 104.693 2 98.5651 2 91.0004" stroke="#FFE843" stroke-width="4" stroke-miterlimit="10"/>
</g>
</g>
</svg>
