<svg width="190" height="189" viewBox="0 0 190 189" fill="none" xmlns="http://www.w3.org/2000/svg">
<g id="Garlands">
<path id="Vector 1" d="M171.62 118.547C172.716 118.412 173.495 117.414 173.36 116.318C173.225 115.221 172.227 114.442 171.13 114.578L171.62 118.547ZM92.65 171.787L93.2535 169.881L92.65 171.787ZM164.325 58.6375C165.43 58.6375 166.325 57.742 166.325 56.6375C166.325 55.5329 165.43 54.6375 164.325 54.6375V58.6375ZM40.3887 57.6312C40.9135 58.6031 42.1269 58.9655 43.0988 58.4406C44.0707 57.9158 44.4331 56.7024 43.9082 55.7305L40.3887 57.6312ZM47.0012 60.6332C46.3567 59.7362 45.107 59.5315 44.21 60.1761C43.313 60.8207 43.1084 62.0704 43.7529 62.9674L47.0012 60.6332ZM43.8151 63.0537C44.4613 63.9495 45.7114 64.1518 46.6072 63.5056C47.503 62.8594 47.7053 61.6093 47.0591 60.7135L43.8151 63.0537ZM50.7239 65.3008C49.9966 64.4694 48.7331 64.3851 47.9017 65.1123C47.0704 65.8396 46.986 67.1031 47.7133 67.9345L50.7239 65.3008ZM47.7816 68.0125C48.51 68.8429 49.7737 68.9255 50.604 68.1971C51.4344 67.4687 51.517 66.2051 50.7886 65.3747L47.7816 68.0125ZM54.8736 69.6911C54.0868 68.9158 52.8205 68.9252 52.0452 69.7119C51.2699 70.4987 51.2793 71.765 52.066 72.5403L54.8736 69.6911ZM52.1383 72.6115C52.9259 73.3859 54.1922 73.3752 54.9667 72.5877C55.7411 71.8001 55.7304 70.5338 54.9429 69.7593L52.1383 72.6115ZM59.2986 73.7918C58.4672 73.0646 57.2037 73.149 56.4764 73.9804C55.7492 74.8118 55.8337 76.0753 56.6651 76.8026L59.2986 73.7918ZM56.7425 76.8702C57.5746 77.5967 58.838 77.5112 59.5645 76.6791C60.291 75.8471 60.2054 74.5836 59.3734 73.8572L56.7425 76.8702ZM63.9757 77.6755C63.109 76.9907 61.8513 77.1383 61.1666 78.005C60.4818 78.8717 60.6294 80.1294 61.4961 80.8141L63.9757 77.6755ZM61.5776 80.8785C62.4448 81.5625 63.7024 81.4141 64.3865 80.5468C65.0706 79.6796 64.9221 78.422 64.0548 77.7379L61.5776 80.8785ZM68.8301 81.3394C67.9346 80.6927 66.6844 80.8945 66.0378 81.79C65.3912 82.6855 65.5929 83.9357 66.4884 84.5823L68.8301 81.3394ZM66.571 84.6418C67.4669 85.2879 68.7169 85.0853 69.363 84.1894C70.009 83.2934 69.8064 82.0434 68.9105 81.3974L66.571 84.6418ZM73.8356 84.8067C72.9159 84.195 71.6744 84.4447 71.0627 85.3644C70.451 86.2842 70.7008 87.5256 71.6205 88.1373L73.8356 84.8067ZM71.7057 88.194C72.6258 88.8051 73.8672 88.5547 74.4783 87.6346C75.0894 86.7145 74.839 85.4732 73.9189 84.862L71.7057 88.194ZM78.9774 88.0958C78.0368 87.5168 76.8048 87.81 76.2258 88.7507C75.6468 89.6913 75.94 90.9232 76.8807 91.5022L78.9774 88.0958ZM76.9682 91.5561C77.9092 92.1345 79.1409 91.8407 79.7194 90.8997C80.2979 89.9587 80.004 88.7269 79.063 88.1485L76.9682 91.5561ZM84.2344 91.2128C83.2753 90.6649 82.0536 90.9983 81.5058 91.9575C80.9579 92.9166 81.2913 94.1382 82.2504 94.6861L84.2344 91.2128ZM82.3387 94.7365C83.2981 95.2839 84.5196 94.9498 85.0669 93.9904C85.6143 93.031 85.2803 91.8095 84.3209 91.2622L82.3387 94.7365ZM89.5809 94.1568C88.6052 93.639 87.3945 94.0102 86.8767 94.9859C86.3589 95.9616 86.7301 97.1723 87.7058 97.6901L89.5809 94.1568ZM87.7958 97.7378C88.7718 98.2551 89.9823 97.8833 90.4996 96.9074C91.0169 95.9314 90.6451 94.7209 89.6691 94.2036L87.7958 97.7378ZM95.0201 96.9388C94.0292 96.4506 92.8302 96.8581 92.342 97.8489C91.8538 98.8397 92.2613 100.039 93.2521 100.527L95.0201 96.9388ZM93.3437 100.572C94.3348 101.06 95.5336 100.652 96.0213 99.6607C96.509 98.6696 96.101 97.4708 95.1099 96.9831L93.3437 100.572ZM100.542 99.5587C99.5374 99.1001 98.351 99.5428 97.8923 100.548C97.4337 101.553 97.8764 102.739 98.8813 103.198L100.542 99.5587ZM98.9742 103.24C99.9793 103.698 101.165 103.255 101.624 102.25C102.082 101.245 101.638 100.058 100.633 99.6003L98.9742 103.24ZM106.139 102.014C105.121 101.585 103.949 102.063 103.52 103.081C103.091 104.099 103.569 105.272 104.587 105.701L106.139 102.014ZM104.681 105.74C105.699 106.168 106.872 105.69 107.3 104.672C107.728 103.654 107.25 102.481 106.232 102.053L104.681 105.74ZM111.805 104.301C110.775 103.903 109.617 104.416 109.219 105.446C108.821 106.477 109.334 107.634 110.364 108.032L111.805 104.301ZM110.459 108.069C111.49 108.467 112.648 107.953 113.045 106.923C113.442 105.892 112.929 104.734 111.899 104.337L110.459 108.069ZM117.538 106.414C116.496 106.048 115.354 106.597 114.989 107.639C114.623 108.681 115.171 109.822 116.213 110.188L117.538 106.414ZM116.31 110.222C117.353 110.587 118.494 110.038 118.859 108.996C119.224 107.953 118.675 106.812 117.633 106.447L116.31 110.222ZM123.333 108.343C122.279 108.012 121.156 108.597 120.825 109.65C120.493 110.704 121.078 111.827 122.132 112.159L123.333 108.343ZM122.229 112.19C123.283 112.521 124.406 111.935 124.737 110.881C125.068 109.827 124.482 108.705 123.428 108.374L122.229 112.19ZM129.184 110.077C128.119 109.782 127.017 110.405 126.722 111.469C126.427 112.534 127.05 113.636 128.115 113.931L129.184 110.077ZM128.213 113.959C129.278 114.253 130.379 113.629 130.674 112.564C130.969 111.5 130.344 110.398 129.28 110.103L128.213 113.959ZM135.084 111.597C134.009 111.342 132.931 112.006 132.675 113.081C132.42 114.155 133.084 115.233 134.159 115.489L135.084 111.597ZM134.258 115.512C135.333 115.767 136.41 115.102 136.665 114.027C136.92 112.953 136.255 111.875 135.18 111.62L134.258 115.512ZM141.033 112.885C139.948 112.674 138.898 113.382 138.687 114.466C138.476 115.55 139.183 116.6 140.267 116.812L141.033 112.885ZM140.369 116.831C141.453 117.042 142.503 116.333 142.713 115.249C142.924 114.165 142.215 113.115 141.131 112.905L140.369 116.831ZM147.031 113.915C145.938 113.754 144.921 114.509 144.76 115.602C144.598 116.694 145.353 117.711 146.446 117.872L147.031 113.915ZM146.548 117.887C147.641 118.048 148.657 117.292 148.817 116.2C148.978 115.107 148.222 114.091 147.13 113.93L146.548 117.887ZM153.051 114.65C151.952 114.545 150.975 115.352 150.871 116.452C150.766 117.551 151.573 118.527 152.672 118.632L153.051 114.65ZM152.774 118.642C153.874 118.745 154.849 117.938 154.953 116.838C155.057 115.738 154.249 114.763 153.149 114.659L152.774 118.642ZM159.08 115.046C157.976 115.008 157.05 115.872 157.012 116.976C156.973 118.079 157.837 119.005 158.941 119.044L159.08 115.046ZM159.045 119.048C160.149 119.085 161.074 118.22 161.112 117.116C161.149 116.012 160.284 115.087 159.18 115.05L159.045 119.048ZM165.118 115.048C164.014 115.088 163.152 116.016 163.192 117.119C163.232 118.223 164.16 119.086 165.264 119.045L165.118 115.048ZM165.367 119.041C166.471 119 167.332 118.071 167.29 116.968C167.249 115.864 166.32 115.003 165.217 115.044L165.367 119.041ZM171.082 114.583C169.986 114.718 169.206 115.715 169.34 116.812C169.475 117.908 170.472 118.688 171.569 118.554L171.082 114.583ZM6.51862 117.85C7.20917 118.712 8.46784 118.851 9.32994 118.16C10.192 117.47 10.3311 116.211 9.64055 115.349L6.51862 117.85ZM13.4023 119.746C12.6613 118.927 11.3965 118.864 10.5774 119.605C9.75836 120.346 9.69512 121.611 10.4362 122.43L13.4023 119.746ZM10.5032 122.504C11.2449 123.323 12.5097 123.385 13.3282 122.643C14.1466 121.901 14.2088 120.636 13.4671 119.818L10.5032 122.504ZM17.4858 124.054C16.7088 123.269 15.4425 123.263 14.6574 124.04C13.8724 124.817 13.8659 126.083 14.6429 126.868L17.4858 124.054ZM14.7123 126.938C15.4898 127.723 16.7562 127.729 17.5407 126.951C18.3252 126.174 18.3309 124.907 17.5533 124.123L14.7123 126.938ZM21.745 128.193C20.9385 127.438 19.6729 127.48 18.9181 128.287C18.1633 129.093 18.2052 130.359 19.0116 131.114L21.745 128.193ZM19.085 131.182C19.8919 131.937 21.1575 131.894 21.9118 131.087C22.6661 130.28 22.6235 129.015 21.8166 128.26L19.085 131.182ZM26.1643 132.185C25.332 131.459 24.0686 131.545 23.3424 132.378C22.6162 133.21 22.7023 134.473 23.5346 135.199L26.1643 132.185ZM23.6108 135.266C24.4436 135.992 25.7069 135.905 26.4326 135.072C27.1583 134.239 27.0715 132.976 26.2388 132.25L23.6108 135.266ZM30.7165 136.025C29.8606 135.327 28.6008 135.455 27.9025 136.311C27.2043 137.167 27.3321 138.426 28.188 139.125L30.7165 136.025ZM28.2663 139.189C29.1226 139.886 30.3824 139.758 31.0802 138.902C31.7779 138.045 31.6495 136.786 30.7932 136.088L28.2663 139.189ZM35.3894 139.714C34.5116 139.044 33.2565 139.212 32.5859 140.089C31.9154 140.967 32.0834 142.222 32.9612 142.893L35.3894 139.714ZM33.0412 142.954C33.9193 143.624 35.1744 143.455 35.8445 142.577C36.5145 141.699 36.3458 140.444 35.4677 139.774L33.0412 142.954ZM40.1767 143.253C39.2783 142.611 38.0291 142.818 37.3864 143.716C36.7437 144.615 36.951 145.864 37.8493 146.507L40.1767 143.253ZM37.9308 146.565C38.8295 147.207 40.0786 146.999 40.7209 146.1C41.3631 145.202 41.1552 143.953 40.2565 143.31L37.9308 146.565ZM45.0749 146.644C44.157 146.029 42.9148 146.275 42.3003 147.193C41.6858 148.111 41.9318 149.353 42.8497 149.968L45.0749 146.644ZM42.9324 150.023C43.8506 150.637 45.0927 150.39 45.7067 149.472C46.3207 148.554 46.0741 147.312 45.1559 146.698L42.9324 150.023ZM50.0814 149.884C49.1449 149.298 47.9109 149.583 47.3251 150.519C46.7393 151.456 47.0236 152.69 47.9601 153.275L50.0814 149.884ZM48.0439 153.328C48.9807 153.913 50.2145 153.628 50.7999 152.691C51.3852 151.755 51.1003 150.521 50.1635 149.936L48.0439 153.328ZM55.1771 152.963C54.2229 152.407 52.9983 152.729 52.4418 153.683C51.8852 154.637 52.2075 155.862 53.1616 156.418L55.1771 152.963ZM53.2481 156.469C54.2025 157.025 55.427 156.702 55.983 155.748C56.5391 154.793 56.2162 153.569 55.2618 153.013L53.2481 156.469ZM60.3687 155.885C59.3977 155.358 58.1837 155.718 57.657 156.689C57.1303 157.66 57.4904 158.874 58.4614 159.401L60.3687 155.885ZM58.5487 159.448C59.5199 159.974 60.7338 159.613 61.26 158.642C61.7862 157.671 61.4254 156.457 60.4542 155.931L58.5487 159.448ZM65.6509 158.644C64.6641 158.148 63.4618 158.546 62.9657 159.533C62.4696 160.52 62.8674 161.722 63.8543 162.218L65.6509 158.644ZM63.9439 162.263C64.931 162.759 66.1331 162.36 66.6287 161.373C67.1243 160.386 66.7259 159.184 65.7387 158.689L63.9439 162.263ZM71.0117 161.235C70.0097 160.77 68.8206 161.205 68.3556 162.207C67.8907 163.209 68.3261 164.398 69.328 164.863L71.0117 161.235ZM69.4182 164.905C70.4204 165.37 71.6094 164.934 72.0738 163.932C72.5382 162.929 72.1022 161.74 71.1 161.276L69.4182 164.905ZM76.4553 163.657C75.4391 163.224 74.2643 163.697 73.8313 164.713C73.3983 165.729 73.871 166.904 74.8871 167.337L76.4553 163.657ZM74.9793 167.376C75.9957 167.809 77.1702 167.335 77.6027 166.319C78.0352 165.303 77.5619 164.128 76.5455 163.696L74.9793 167.376ZM81.9705 165.905C80.9411 165.504 79.7819 166.014 79.3814 167.043C78.981 168.073 79.4908 169.232 80.5202 169.632L81.9705 165.905ZM80.6128 169.668C81.6424 170.068 82.8013 169.558 83.2013 168.528C83.6012 167.499 83.0907 166.34 82.0611 165.94L80.6128 169.668ZM87.5526 167.974C86.5108 167.607 85.3686 168.153 85.0013 169.195C84.634 170.237 85.1807 171.379 86.2224 171.746L87.5526 167.974ZM86.3166 171.78C87.3585 172.146 88.5005 171.599 88.8673 170.557C89.234 169.515 88.6867 168.373 87.6448 168.007L86.3166 171.78ZM93.2066 169.866C92.1536 169.532 91.0295 170.116 90.696 171.169C90.3625 172.222 90.9457 173.346 91.9987 173.679L93.2066 169.866ZM92.0952 173.71C93.1484 174.043 94.2721 173.459 94.6051 172.406C94.9382 171.353 94.3544 170.229 93.3013 169.896L92.0952 173.71ZM99.004 171.624C97.9431 171.316 96.8339 171.927 96.5265 172.988C96.2192 174.049 96.8301 175.158 97.891 175.466L99.004 171.624ZM97.9881 175.494C99.0492 175.801 100.158 175.189 100.465 174.128C100.772 173.067 100.161 171.958 99.0996 171.651L97.9881 175.494ZM104.83 173.232C103.762 172.952 102.668 173.59 102.388 174.659C102.107 175.727 102.746 176.821 103.814 177.101L104.83 173.232ZM103.911 177.127C104.98 177.407 106.073 176.767 106.353 175.699C106.633 174.63 105.994 173.537 104.925 173.257L103.911 177.127ZM110.694 174.691C109.619 174.438 108.542 175.105 108.29 176.18C108.037 177.256 108.704 178.332 109.779 178.585L110.694 174.691ZM109.878 178.608C110.953 178.861 112.029 178.193 112.282 177.118C112.534 176.043 111.867 174.966 110.791 174.714L109.878 178.608ZM116.598 175.997C115.516 175.773 114.458 176.468 114.234 177.549C114.009 178.631 114.704 179.69 115.786 179.914L116.598 175.997ZM115.884 179.934C116.966 180.158 118.024 179.462 118.248 178.381C118.472 177.299 117.776 176.241 116.694 176.017L115.884 179.934ZM122.529 177.143C121.442 176.949 120.402 177.672 120.207 178.759C120.012 179.846 120.736 180.886 121.823 181.081L122.529 177.143ZM121.923 181.099C123.01 181.293 124.049 180.569 124.244 179.482C124.438 178.394 123.714 177.355 122.627 177.161L121.923 181.099ZM128.487 178.127C127.395 177.962 126.376 178.714 126.211 179.806C126.046 180.899 126.798 181.918 127.89 182.083L128.487 178.127ZM127.989 182.097C129.081 182.262 130.1 181.51 130.264 180.417C130.429 179.325 129.677 178.306 128.584 178.142L127.989 182.097ZM134.477 178.946C133.381 178.812 132.383 179.592 132.249 180.688C132.115 181.785 132.895 182.782 133.991 182.916L134.477 178.946ZM134.091 182.929C135.188 183.062 136.185 182.282 136.319 181.185C136.452 180.089 135.672 179.092 134.575 178.958L134.091 182.929ZM140.48 179.594C139.38 179.491 138.405 180.299 138.302 181.399C138.199 182.499 139.007 183.474 140.107 183.577L140.48 179.594ZM140.208 183.586C141.308 183.688 142.282 182.88 142.385 181.78C142.487 180.68 141.678 179.706 140.579 179.603L140.208 183.586ZM146.495 180.069C145.393 179.998 144.442 180.834 144.371 181.937C144.299 183.039 145.135 183.99 146.238 184.061L146.495 180.069ZM146.34 184.068C147.442 184.138 148.393 183.302 148.463 182.199C148.534 181.097 147.697 180.146 146.595 180.076L146.34 184.068ZM152.523 180.37C151.42 180.331 150.493 181.194 150.454 182.298C150.415 183.402 151.279 184.329 152.383 184.367L152.523 180.37ZM152.485 184.371C153.589 184.409 154.515 183.545 154.553 182.442C154.591 181.338 153.728 180.412 152.624 180.373L152.485 184.371ZM158.562 180.494C157.458 180.487 156.557 181.378 156.551 182.482C156.544 183.587 157.434 184.487 158.539 184.494L158.562 180.494ZM158.641 184.494C159.746 184.5 160.646 183.61 160.652 182.505C160.658 181.401 159.767 180.5 158.662 180.494L158.641 184.494ZM164.606 180.441C163.501 180.467 162.627 181.383 162.653 182.487C162.679 183.591 163.595 184.466 164.699 184.44L164.606 180.441ZM164.8 184.437C165.905 184.411 166.779 183.495 166.752 182.39C166.726 181.286 165.809 180.412 164.705 180.439L164.8 184.437ZM170.64 180.213C169.537 180.271 168.689 181.211 168.747 182.314C168.804 183.417 169.744 184.265 170.848 184.208L170.64 180.213ZM170.947 184.203C172.05 184.145 172.898 183.204 172.84 182.101C172.782 180.998 171.841 180.15 170.738 180.208L170.947 184.203ZM176.672 179.818C175.571 179.905 174.748 180.868 174.835 181.969C174.922 183.07 175.885 183.892 176.986 183.805L176.672 179.818ZM177.087 183.797C178.188 183.71 179.01 182.747 178.923 181.645C178.836 180.544 177.872 179.723 176.771 179.81L177.087 183.797ZM182.699 179.271C181.6 179.382 180.8 180.363 180.911 181.462C181.023 182.561 182.004 183.362 183.103 183.25L182.699 179.271ZM183.204 183.24C184.303 183.128 185.103 182.146 184.991 181.047C184.879 179.949 183.897 179.148 182.798 179.26L183.204 183.24ZM188.731 178.618C187.633 178.74 186.842 179.728 186.964 180.826C187.086 181.924 188.075 182.715 189.173 182.593L188.731 178.618ZM65.1282 3.09876C65.7128 4.03595 66.9464 4.3218 67.8836 3.73721C68.8208 3.15262 69.1066 1.91898 68.5221 0.981784L65.1282 3.09876ZM71.8559 5.49508C71.1442 4.65041 69.8824 4.54266 69.0377 5.25442C68.1931 5.96618 68.0853 7.22792 68.7971 8.07259L71.8559 5.49508ZM68.8621 8.14962C69.5754 8.99305 70.8373 9.09858 71.6807 8.38534C72.5241 7.6721 72.6297 6.41017 71.9164 5.56675L68.8621 8.14962ZM75.8249 9.7784C75.0418 8.99945 73.7755 9.00284 72.9965 9.78598C72.2176 10.5691 72.221 11.8354 73.0041 12.6144L75.8249 9.7784ZM73.0749 12.6848C73.859 13.4628 75.1253 13.458 75.9034 12.6739C76.6814 11.8899 76.6765 10.6236 75.8925 9.84553L73.0749 12.6848ZM80.1415 13.8047C79.3124 13.0749 78.0486 13.1554 77.3188 13.9846C76.589 14.8137 76.6695 16.0775 77.4986 16.8073L80.1415 13.8047ZM77.5728 16.8725C78.4025 17.6016 79.6662 17.52 80.3953 16.6903C81.1244 15.8605 81.0428 14.5968 80.2131 13.8677L77.5728 16.8725ZM84.675 17.6058C83.813 16.9151 82.5543 17.0539 81.8636 17.9159C81.1729 18.7778 81.3118 20.0365 82.1737 20.7272L84.675 17.6058ZM82.2525 20.7903C83.1149 21.4804 84.3735 21.3407 85.0637 20.4783C85.7538 19.6158 85.6141 18.3572 84.7516 17.6671L82.2525 20.7903ZM89.3808 21.229C88.4934 20.5712 87.2408 20.7573 86.5831 21.6447C85.9253 22.532 86.1114 23.7846 86.9987 24.4424L89.3808 21.229ZM87.0786 24.5016C87.9663 25.1589 89.2188 24.9721 89.8761 24.0844C90.5334 23.1966 90.3466 21.9442 89.4589 21.2869L87.0786 24.5016ZM94.2244 24.6973C93.3163 24.0685 92.0704 24.2949 91.4415 25.203C90.8127 26.1111 91.0391 27.357 91.9472 27.9858L94.2244 24.6973ZM92.0298 28.043C92.9382 28.6714 94.184 28.4443 94.8124 27.5359C95.4408 26.6275 95.2137 25.3817 94.3053 24.7533L92.0298 28.043ZM99.1688 28.0154C98.243 27.4129 97.0041 27.675 96.4017 28.6008C95.7992 29.5266 96.0613 30.7655 96.9871 31.368L99.1688 28.0154ZM97.0704 31.4222C97.9965 32.0242 99.2353 31.7615 99.8374 30.8355C100.439 29.9094 100.177 28.6706 99.2506 28.0686L97.0704 31.4222ZM104.212 31.2012C103.27 30.6237 102.039 30.9187 101.461 31.8603C100.884 32.8018 101.179 34.0333 102.12 34.6108L104.212 31.2012ZM102.205 34.663C103.147 35.2402 104.379 34.9446 104.956 34.0028C105.533 33.061 105.237 31.8297 104.295 31.2525L102.205 34.663ZM109.336 34.2549C108.38 33.7015 107.157 34.0279 106.603 34.9839C106.05 35.9398 106.376 37.1634 107.332 37.7167L109.336 34.2549ZM107.418 37.7665C108.374 38.3195 109.598 37.9926 110.151 37.0364C110.704 36.0803 110.377 34.8568 109.421 34.3039L107.418 37.7665ZM114.536 37.1786C113.567 36.6494 112.352 37.0065 111.823 37.9761C111.294 38.9456 111.651 40.1606 112.62 40.6897L114.536 37.1786ZM112.708 40.7373C113.677 41.2661 114.892 40.9085 115.421 39.9387C115.95 38.9689 115.592 37.7541 114.622 37.2254L112.708 40.7373ZM119.808 39.9691C118.826 39.465 117.62 39.853 117.116 40.8358C116.612 41.8186 117 43.0241 117.983 43.5282L119.808 39.9691ZM118.072 43.5737C119.055 44.0774 120.26 43.6888 120.764 42.7058C121.267 41.7228 120.879 40.5175 119.896 40.0138L118.072 43.5737ZM125.151 42.6205C124.155 42.143 122.961 42.5633 122.483 43.5593C122.006 44.5553 122.426 45.7499 123.422 46.2274L125.151 42.6205ZM123.512 46.2703C124.508 46.7474 125.702 46.3265 126.179 45.3303C126.656 44.3341 126.235 43.1397 125.239 42.6626L123.512 46.2703ZM130.556 45.1174C129.547 44.669 128.365 45.124 127.917 46.1335C127.468 47.143 127.923 48.3248 128.933 48.7731L130.556 45.1174ZM129.025 48.8138C130.034 49.2616 131.216 48.8061 131.664 47.7963C132.112 46.7866 131.656 45.6051 130.646 45.1572L129.025 48.8138ZM136.038 47.4473C135.014 47.0323 133.848 47.5257 133.433 48.5493C133.018 49.573 133.511 50.7392 134.535 51.1542L136.038 47.4473ZM134.627 51.1915C135.651 51.6059 136.817 51.1118 137.231 50.088C137.646 49.0641 137.152 47.8981 136.128 47.4837L134.627 51.1915ZM141.581 49.5753C140.542 49.1999 139.396 49.7377 139.02 50.7765C138.645 51.8153 139.183 52.9618 140.221 53.3372L141.581 49.5753ZM140.316 53.3714C141.355 53.7461 142.501 53.2075 142.876 52.1685C143.251 51.1294 142.712 49.9833 141.673 49.6086L140.316 53.3714ZM147.187 51.459C146.132 51.133 145.012 51.7243 144.686 52.7796C144.36 53.835 144.951 54.9548 146.007 55.2808L147.187 51.459ZM146.101 55.3099C147.157 55.635 148.276 55.0427 148.601 53.9871C148.926 52.9314 148.334 51.8121 147.278 51.487L146.101 55.3099ZM152.874 53.0335C151.8 52.7738 150.719 53.4335 150.459 54.5071C150.2 55.5807 150.86 56.6616 151.933 56.9213L152.874 53.0335ZM152.03 56.9447C153.104 57.2032 154.184 56.5422 154.443 55.4683C154.701 54.3944 154.04 53.3143 152.966 53.0558L152.03 56.9447ZM158.599 54.1696C157.506 54.0067 156.489 54.7603 156.326 55.8528C156.163 56.9452 156.917 57.9629 158.009 58.1258L158.599 54.1696ZM158.109 58.1406C159.202 58.3015 160.218 57.5461 160.379 56.4533C160.54 55.3606 159.784 54.3442 158.692 54.1833L158.109 58.1406ZM164.281 54.6374C163.176 54.6357 162.279 55.5298 162.278 56.6343C162.276 57.7389 163.17 58.6357 164.274 58.6374L164.281 54.6374ZM40.3641 57.5857C40.3723 57.6009 40.3805 57.616 40.3887 57.6312L43.9082 55.7305C43.9008 55.7168 43.8934 55.703 43.886 55.6893L40.3641 57.5857ZM43.7529 62.9674C43.7736 62.9962 43.7943 63.0249 43.8151 63.0537L47.0591 60.7135C47.0398 60.6867 47.0205 60.66 47.0012 60.6332L43.7529 62.9674ZM47.7133 67.9345C47.736 67.9605 47.7588 67.9865 47.7816 68.0125L50.7886 65.3747C50.767 65.3501 50.7454 65.3254 50.7239 65.3008L47.7133 67.9345ZM52.066 72.5403C52.0901 72.564 52.1142 72.5877 52.1383 72.6115L54.9429 69.7593C54.9197 69.7366 54.8966 69.7139 54.8736 69.6911L52.066 72.5403ZM56.6651 76.8026C56.6909 76.8251 56.7167 76.8477 56.7425 76.8702L59.3734 73.8572C59.3484 73.8354 59.3235 73.8136 59.2986 73.7918L56.6651 76.8026ZM61.4961 80.8141C61.5232 80.8356 61.5504 80.857 61.5776 80.8785L64.0548 77.7379C64.0284 77.7171 64.0021 77.6963 63.9757 77.6755L61.4961 80.8141ZM66.4884 84.5823C66.5159 84.6021 66.5435 84.622 66.571 84.6418L68.9105 81.3974C68.8837 81.378 68.8569 81.3587 68.8301 81.3394L66.4884 84.5823ZM71.6205 88.1373C71.6489 88.1562 71.6773 88.1751 71.7057 88.194L73.9189 84.862C73.8911 84.8436 73.8634 84.8251 73.8356 84.8067L71.6205 88.1373ZM76.8807 91.5022C76.9099 91.5202 76.939 91.5381 76.9682 91.5561L79.063 88.1485C79.0345 88.1309 79.0059 88.1134 78.9774 88.0958L76.8807 91.5022ZM82.2504 94.6861C82.2798 94.7029 82.3093 94.7197 82.3387 94.7365L84.3209 91.2622C84.292 91.2457 84.2632 91.2293 84.2344 91.2128L82.2504 94.6861ZM87.7058 97.6901C87.7358 97.706 87.7658 97.7219 87.7958 97.7378L89.6691 94.2036C89.6397 94.188 89.6103 94.1724 89.5809 94.1568L87.7058 97.6901ZM93.2521 100.527C93.2826 100.542 93.3132 100.557 93.3437 100.572L95.1099 96.9831C95.0799 96.9683 95.05 96.9536 95.0201 96.9388L93.2521 100.527ZM98.8813 103.198C98.9123 103.212 98.9432 103.226 98.9742 103.24L100.633 99.6003C100.603 99.5865 100.573 99.5726 100.542 99.5587L98.8813 103.198ZM104.587 105.701C104.618 105.714 104.65 105.727 104.681 105.74L106.232 102.053C106.201 102.04 106.17 102.027 106.139 102.014L104.587 105.701ZM110.364 108.032C110.396 108.045 110.428 108.057 110.459 108.069L111.899 104.337C111.867 104.325 111.836 104.313 111.805 104.301L110.364 108.032ZM116.213 110.188C116.246 110.2 116.278 110.211 116.31 110.222L117.633 106.447C117.601 106.436 117.57 106.425 117.538 106.414L116.213 110.188ZM122.132 112.159C122.164 112.169 122.197 112.179 122.229 112.19L123.428 108.374C123.397 108.364 123.365 108.354 123.333 108.343L122.132 112.159ZM128.115 113.931C128.147 113.94 128.18 113.949 128.213 113.959L129.28 110.103C129.248 110.095 129.216 110.086 129.184 110.077L128.115 113.931ZM134.159 115.489C134.192 115.497 134.225 115.505 134.258 115.512L135.18 111.62C135.148 111.613 135.116 111.605 135.084 111.597L134.159 115.489ZM140.267 116.812C140.301 116.818 140.335 116.825 140.369 116.831L141.131 112.905C141.098 112.898 141.065 112.892 141.033 112.885L140.267 116.812ZM146.446 117.872C146.48 117.877 146.514 117.882 146.548 117.887L147.13 113.93C147.097 113.925 147.064 113.92 147.031 113.915L146.446 117.872ZM152.672 118.632C152.706 118.635 152.74 118.639 152.774 118.642L153.149 114.659C153.117 114.656 153.084 114.653 153.051 114.65L152.672 118.632ZM158.941 119.044C158.976 119.045 159.01 119.046 159.045 119.048L159.18 115.05C159.147 115.049 159.113 115.048 159.08 115.046L158.941 119.044ZM165.264 119.045C165.298 119.044 165.333 119.043 165.367 119.041L165.217 115.044C165.184 115.046 165.151 115.047 165.118 115.048L165.264 119.045ZM171.569 118.554C171.586 118.552 171.603 118.55 171.62 118.547L171.13 114.578C171.114 114.579 171.098 114.581 171.082 114.583L171.569 118.554ZM6.48831 117.812C6.4984 117.824 6.5085 117.837 6.51862 117.85L9.64055 115.349C9.63094 115.337 9.62136 115.325 9.61179 115.313L6.48831 117.812ZM10.4362 122.43C10.4585 122.455 10.4808 122.479 10.5032 122.504L13.4671 119.818C13.4455 119.794 13.4239 119.77 13.4023 119.746L10.4362 122.43ZM14.6429 126.868C14.666 126.892 14.6891 126.915 14.7123 126.938L17.5533 124.123C17.5308 124.1 17.5083 124.077 17.4858 124.054L14.6429 126.868ZM19.0116 131.114C19.036 131.136 19.0605 131.159 19.085 131.182L21.8166 128.26C21.7927 128.238 21.7688 128.216 21.745 128.193L19.0116 131.114ZM23.5346 135.199C23.56 135.222 23.5854 135.244 23.6108 135.266L26.2388 132.25C26.2139 132.229 26.1891 132.207 26.1643 132.185L23.5346 135.199ZM28.188 139.125C28.2141 139.146 28.2402 139.167 28.2663 139.189L30.7932 136.088C30.7676 136.067 30.7421 136.046 30.7165 136.025L28.188 139.125ZM32.9612 142.893C32.9879 142.913 33.0145 142.933 33.0412 142.954L35.4677 139.774C35.4416 139.754 35.4155 139.734 35.3894 139.714L32.9612 142.893ZM37.8493 146.507C37.8765 146.526 37.9036 146.545 37.9308 146.565L40.2565 143.31C40.2299 143.291 40.2033 143.272 40.1767 143.253L37.8493 146.507ZM42.8497 149.968C42.8772 149.986 42.9048 150.004 42.9324 150.023L45.1559 146.698C45.1289 146.68 45.1019 146.662 45.0749 146.644L42.8497 149.968ZM47.9601 153.275C47.988 153.293 48.016 153.31 48.0439 153.328L50.1635 149.936C50.1361 149.918 50.1087 149.901 50.0814 149.884L47.9601 153.275ZM53.1616 156.418C53.1904 156.435 53.2193 156.452 53.2481 156.469L55.2618 153.013C55.2336 152.996 55.2053 152.98 55.1771 152.963L53.1616 156.418ZM58.4614 159.401C58.4905 159.416 58.5196 159.432 58.5487 159.448L60.4542 155.931C60.4257 155.916 60.3972 155.9 60.3687 155.885L58.4614 159.401ZM63.8543 162.218C63.8841 162.233 63.914 162.248 63.9439 162.263L65.7387 158.689C65.7095 158.674 65.6802 158.659 65.6509 158.644L63.8543 162.218ZM69.328 164.863C69.3581 164.877 69.3882 164.891 69.4182 164.905L71.1 161.276C71.0706 161.262 71.0411 161.249 71.0117 161.235L69.328 164.863ZM74.8871 167.337C74.9179 167.35 74.9486 167.363 74.9793 167.376L76.5455 163.696C76.5154 163.683 76.4853 163.67 76.4553 163.657L74.8871 167.337ZM80.5202 169.632C80.5511 169.644 80.5819 169.656 80.6128 169.668L82.0611 165.94C82.0309 165.928 82.0007 165.916 81.9705 165.905L80.5202 169.632ZM86.2224 171.746C86.2538 171.757 86.2852 171.769 86.3166 171.78L87.6448 168.007C87.6141 167.996 87.5833 167.985 87.5526 167.974L86.2224 171.746ZM91.9987 173.679C92.0147 173.684 92.0307 173.689 92.0466 173.694L93.2535 169.881C93.2378 169.876 93.2222 169.871 93.2066 169.866L91.9987 173.679ZM92.0466 173.694C92.0628 173.699 92.079 173.705 92.0952 173.71L93.3013 169.896C93.2853 169.891 93.2694 169.886 93.2535 169.881L92.0466 173.694ZM97.891 175.466C97.9234 175.475 97.9558 175.484 97.9881 175.494L99.0996 171.651C99.0677 171.642 99.0359 171.633 99.004 171.624L97.891 175.466ZM103.814 177.101C103.847 177.11 103.879 177.118 103.911 177.127L104.925 173.257C104.894 173.249 104.862 173.241 104.83 173.232L103.814 177.101ZM109.779 178.585C109.812 178.593 109.845 178.601 109.878 178.608L110.791 174.714C110.759 174.706 110.727 174.699 110.694 174.691L109.779 178.585ZM115.786 179.914C115.819 179.921 115.852 179.927 115.884 179.934L116.694 176.017C116.662 176.01 116.63 176.004 116.598 175.997L115.786 179.914ZM121.823 181.081C121.856 181.087 121.89 181.093 121.923 181.099L122.627 177.161C122.594 177.155 122.562 177.149 122.529 177.143L121.823 181.081ZM127.89 182.083C127.923 182.088 127.956 182.092 127.989 182.097L128.584 178.142C128.552 178.137 128.52 178.132 128.487 178.127L127.89 182.083ZM133.991 182.916C134.025 182.921 134.058 182.925 134.091 182.929L134.575 178.958C134.543 178.954 134.51 178.95 134.477 178.946L133.991 182.916ZM140.107 183.577C140.141 183.58 140.174 183.583 140.208 183.586L140.579 179.603C140.546 179.6 140.513 179.597 140.48 179.594L140.107 183.577ZM146.238 184.061C146.272 184.063 146.306 184.065 146.34 184.068L146.595 180.076C146.562 180.074 146.528 180.072 146.495 180.069L146.238 184.061ZM152.383 184.367C152.417 184.369 152.451 184.37 152.485 184.371L152.624 180.373C152.59 180.372 152.557 180.371 152.523 180.37L152.383 184.367ZM158.539 184.494C158.573 184.494 158.607 184.494 158.641 184.494L158.662 180.494C158.629 180.494 158.596 180.494 158.562 180.494L158.539 184.494ZM164.699 184.44C164.733 184.439 164.767 184.438 164.8 184.437L164.705 180.439C164.672 180.439 164.639 180.44 164.606 180.441L164.699 184.44ZM170.848 184.208C170.881 184.206 170.914 184.205 170.947 184.203L170.738 180.208C170.705 180.21 170.673 180.212 170.64 180.213L170.848 184.208ZM176.986 183.805C177.02 183.803 177.054 183.8 177.087 183.797L176.771 179.81C176.738 179.812 176.705 179.815 176.672 179.818L176.986 183.805ZM183.103 183.25C183.137 183.247 183.17 183.243 183.204 183.24L182.798 179.26C182.765 179.264 182.732 179.267 182.699 179.271L183.103 183.25ZM189.173 182.593C189.189 182.591 189.205 182.59 189.221 182.588L188.779 178.612C188.763 178.614 188.747 178.616 188.731 178.618L189.173 182.593ZM65.1015 3.05587C65.1104 3.07016 65.1193 3.08446 65.1282 3.09876L68.5221 0.981784C68.5142 0.969227 68.5064 0.956676 68.4986 0.944132L65.1015 3.05587ZM68.7971 8.07259C68.8187 8.09826 68.8404 8.12394 68.8621 8.14962L71.9164 5.56675C71.8962 5.54285 71.876 5.51896 71.8559 5.49508L68.7971 8.07259ZM73.0041 12.6144C73.0277 12.6379 73.0513 12.6613 73.0749 12.6848L75.8925 9.84553C75.8699 9.82315 75.8474 9.80077 75.8249 9.7784L73.0041 12.6144ZM77.4986 16.8073C77.5233 16.829 77.548 16.8507 77.5728 16.8725L80.2131 13.8677C80.1892 13.8467 80.1653 13.8257 80.1415 13.8047L77.4986 16.8073ZM82.1737 20.7272C82.2 20.7483 82.2262 20.7693 82.2525 20.7903L84.7516 17.6671C84.7261 17.6467 84.7005 17.6262 84.675 17.6058L82.1737 20.7272ZM86.9987 24.4424C87.0253 24.4621 87.052 24.4819 87.0786 24.5016L89.4589 21.2869C89.4328 21.2676 89.4068 21.2483 89.3808 21.229L86.9987 24.4424ZM91.9472 27.9858C91.9747 28.0049 92.0022 28.0239 92.0298 28.043L94.3053 24.7533C94.2783 24.7346 94.2514 24.716 94.2244 24.6973L91.9472 27.9858ZM96.9871 31.368C97.0149 31.3861 97.0427 31.4041 97.0704 31.4222L99.2506 28.0686C99.2234 28.0508 99.1961 28.0331 99.1688 28.0154L96.9871 31.368ZM102.12 34.6108C102.149 34.6282 102.177 34.6456 102.205 34.663L104.295 31.2525C104.268 31.2354 104.24 31.2183 104.212 31.2012L102.12 34.6108ZM107.332 37.7167C107.361 37.7333 107.389 37.7499 107.418 37.7665L109.421 34.3039C109.392 34.2876 109.364 34.2712 109.336 34.2549L107.332 37.7167ZM112.62 40.6897C112.649 40.7056 112.678 40.7215 112.708 40.7373L114.622 37.2254C114.594 37.2098 114.565 37.1942 114.536 37.1786L112.62 40.6897ZM117.983 43.5282C118.012 43.5434 118.042 43.5585 118.072 43.5737L119.896 40.0138C119.867 39.9989 119.837 39.984 119.808 39.9691L117.983 43.5282ZM123.422 46.2274C123.452 46.2417 123.482 46.256 123.512 46.2703L125.239 42.6626C125.21 42.6486 125.18 42.6345 125.151 42.6205L123.422 46.2274ZM128.933 48.7731C128.963 48.7867 128.994 48.8002 129.025 48.8138L130.646 45.1572C130.616 45.144 130.586 45.1307 130.556 45.1174L128.933 48.7731ZM134.535 51.1542C134.566 51.1667 134.596 51.1791 134.627 51.1915L136.128 47.4837C136.098 47.4716 136.068 47.4594 136.038 47.4473L134.535 51.1542ZM140.221 53.3372C140.253 53.3486 140.285 53.36 140.316 53.3714L141.673 49.6086C141.642 49.5975 141.612 49.5864 141.581 49.5753L140.221 53.3372ZM146.007 55.2808C146.038 55.2905 146.07 55.3002 146.101 55.3099L147.278 51.487C147.248 51.4777 147.218 51.4683 147.187 51.459L146.007 55.2808ZM151.933 56.9213C151.965 56.9292 151.998 56.937 152.03 56.9447L152.966 53.0558C152.935 53.0484 152.905 53.041 152.874 53.0335L151.933 56.9213ZM158.009 58.1258C158.042 58.1308 158.076 58.1357 158.109 58.1406L158.692 54.1833C158.661 54.1787 158.63 54.1742 158.599 54.1696L158.009 58.1258ZM164.274 58.6374C164.291 58.6375 164.308 58.6375 164.325 58.6375V54.6375C164.31 54.6375 164.295 54.6375 164.281 54.6374L164.274 58.6374Z" fill="white"/>
<g id="Vector 2">
<path id="Vector 1_2" d="M148.702 55.7017C149.483 54.9207 149.483 53.6543 148.702 52.8733C147.921 52.0922 146.654 52.0922 145.873 52.8733L148.702 55.7017ZM179.296 137.906C180.052 137.101 180.012 135.835 179.206 135.079C178.401 134.323 177.135 134.363 176.379 135.169L179.296 137.906ZM105.575 178.837L106.166 180.748L105.575 178.837ZM40.4123 52.7625C41.5169 52.7618 42.4118 51.8658 42.4111 50.7612C42.4104 49.6567 41.5144 48.7618 40.4099 48.7625L40.4123 52.7625ZM46.2708 48.5608C45.1685 48.6322 44.3328 49.5836 44.4042 50.6858C44.4755 51.7881 45.4269 52.6238 46.5292 52.5525L46.2708 48.5608ZM46.6301 52.5459C47.7323 52.4735 48.5672 51.5214 48.4948 50.4192C48.4225 49.317 47.4703 48.4821 46.3681 48.5545L46.6301 52.5459ZM52.2282 48.0185C51.131 48.1457 50.3446 49.1382 50.4718 50.2354C50.5989 51.3327 51.5914 52.1191 52.6887 51.9919L52.2282 48.0185ZM52.79 51.9802C53.8871 51.8522 54.6727 50.859 54.5448 49.7619C54.4168 48.6648 53.4236 47.8791 52.3265 48.0071L52.79 51.9802ZM58.1815 47.1924C57.091 47.368 56.3493 48.3944 56.5249 49.485C56.7005 50.5755 57.7269 51.3172 58.8174 51.1415L58.1815 47.1924ZM58.9164 51.1256C60.0068 50.9492 60.7477 49.9223 60.5714 48.8319C60.395 47.7415 59.3681 47.0005 58.2777 47.1769L58.9164 51.1256ZM64.0898 46.1148C63.0074 46.3352 62.3086 47.3912 62.5289 48.4736C62.7492 49.5559 63.8052 50.2548 64.8876 50.0345L64.0898 46.1148ZM64.9865 50.0143C66.0688 49.7933 66.7669 48.7368 66.5459 47.6545C66.3249 46.5723 65.2683 45.8742 64.1861 46.0952L64.9865 50.0143ZM69.9569 44.7978C68.8842 45.0611 68.228 46.1442 68.4914 47.2169C68.7548 48.2897 69.8379 48.9458 70.9106 48.6824L69.9569 44.7978ZM71.009 48.6582C72.0815 48.3942 72.7369 47.3106 72.4729 46.2381C72.2088 45.1655 71.1253 44.5101 70.0527 44.7742L71.009 48.6582ZM75.7678 43.2479C74.7064 43.5538 74.094 44.6622 74.3999 45.7236C74.7058 46.7849 75.8142 47.3974 76.8755 47.0915L75.7678 43.2479ZM76.973 47.0633C78.0342 46.7567 78.6459 45.6479 78.3393 44.5868C78.0327 43.5256 76.9239 42.9139 75.8627 43.2205L76.973 47.0633ZM81.5099 41.4664C80.4618 41.8152 79.8949 42.9475 80.2437 43.9956C80.5925 45.0437 81.7248 45.6106 82.7729 45.2618L81.5099 41.4664ZM82.8691 45.2297C83.917 44.8803 84.4831 43.7475 84.1336 42.6997C83.7842 41.6519 82.6515 41.0857 81.6036 41.4352L82.8691 45.2297ZM87.1706 39.4506C86.1381 39.8431 85.6193 40.9983 86.0118 42.0307C86.4043 43.0632 87.5594 43.5821 88.5919 43.1896L87.1706 39.4506ZM88.6868 43.1535C89.719 42.7603 90.237 41.6048 89.8438 40.5725C89.4506 39.5403 88.2951 39.0223 87.2628 39.4155L88.6868 43.1535ZM92.7357 37.1951C91.7215 37.6326 91.254 38.8094 91.6915 39.8237C92.129 40.8379 93.3058 41.3054 94.3201 40.8679L92.7357 37.1951ZM94.4132 40.8277C95.4271 40.3895 95.8938 39.2122 95.4555 38.1983C95.0173 37.1844 93.8401 36.7178 92.8262 37.156L94.4132 40.8277ZM98.1888 34.6926C97.1959 35.1767 96.7836 36.374 97.2677 37.3668C97.7518 38.3597 98.9491 38.772 99.9419 38.2879L98.1888 34.6926ZM100.033 38.2434C101.026 37.7585 101.437 36.5609 100.952 35.5684C100.467 34.576 99.2696 34.1645 98.2771 34.6494L100.033 38.2434ZM103.511 31.9347C102.543 32.4672 102.19 33.6834 102.723 34.6511C103.255 35.6188 104.471 35.9716 105.439 35.4391L103.511 31.9347ZM105.528 35.3901C106.495 34.8567 106.847 33.6402 106.314 32.673C105.78 31.7057 104.564 31.3539 103.597 31.8873L105.528 35.3901ZM108.679 28.9124C107.741 29.4952 107.452 30.7283 108.035 31.6666C108.618 32.6049 109.851 32.8931 110.789 32.3103L108.679 28.9124ZM110.876 32.2566C111.813 31.6729 112.101 30.4396 111.517 29.5018C110.933 28.564 109.7 28.2769 108.762 28.8606L110.876 32.2566ZM113.668 25.6169C112.764 26.2517 112.546 27.4991 113.181 28.403C113.816 29.307 115.063 29.5251 115.967 28.8903L113.668 25.6169ZM116.05 28.8318C116.954 28.1961 117.171 26.9485 116.535 26.0452C115.899 25.1419 114.652 24.9249 113.748 25.5606L116.05 28.8318ZM118.45 22.0406C117.586 22.7288 117.444 23.9871 118.132 24.8511C118.821 25.715 120.079 25.8574 120.943 25.1692L118.45 22.0406ZM121.022 25.1057C121.886 24.4166 122.027 23.1581 121.338 22.2949C120.649 21.4317 119.39 21.2905 118.527 21.9797L121.022 25.1057ZM122.993 18.178C122.176 18.9206 122.115 20.1854 122.857 21.0032C123.6 21.8209 124.865 21.8818 125.683 21.1392L122.993 18.178ZM31.9845 97.4073C33.0834 97.5185 34.0644 96.7177 34.1756 95.6188C34.2868 94.5198 33.4861 93.5388 32.3871 93.4276L31.9845 97.4073ZM38.1441 93.8392C37.0406 93.7915 36.1073 94.6474 36.0596 95.751C36.0119 96.8545 36.8678 97.7878 37.9713 97.8355L38.1441 93.8392ZM38.0719 97.8398C39.1755 97.8865 40.108 97.0298 40.1547 95.9262C40.2014 94.8226 39.3447 93.8901 38.2411 93.8434L38.0719 97.8398ZM44.0285 93.938C42.9239 93.9476 42.0363 94.8507 42.0459 95.9552C42.0555 97.0598 42.9587 97.9474 44.0632 97.9378L44.0285 93.938ZM44.1631 97.9369C45.2676 97.9264 46.1545 97.0225 46.144 95.918C46.1335 94.8135 45.2296 93.9266 44.1251 93.9371L44.1631 97.9369ZM49.9266 93.7462C48.8237 93.8075 47.9794 94.7514 48.0408 95.8542C48.1022 96.9571 49.046 97.8014 50.1489 97.74L49.9266 93.7462ZM50.2479 97.7344C51.3507 97.6722 52.1943 96.7278 52.1321 95.625C52.0699 94.5222 51.1255 93.6786 50.0227 93.7408L50.2479 97.7344ZM55.814 93.2892C54.7148 93.3981 53.912 94.3775 54.021 95.4767C54.1299 96.5758 55.1093 97.3786 56.2085 97.2697L55.814 93.2892ZM56.3081 97.2598C57.4072 97.1501 58.2093 96.1701 58.0996 95.071C57.9899 93.9719 57.0099 93.1698 55.9108 93.2795L56.3081 97.2598ZM61.6809 92.5865C60.587 92.7398 59.8245 93.7508 59.9778 94.8447C60.131 95.9386 61.142 96.7011 62.2359 96.5478L61.6809 92.5865ZM62.3344 96.534C63.4281 96.3801 64.19 95.3686 64.0361 94.2748C63.8821 93.181 62.8706 92.4191 61.7768 92.5731L62.3344 96.534ZM67.526 91.6518C66.4389 91.847 65.7158 92.8866 65.911 93.9738C66.1062 95.061 67.1457 95.7841 68.2329 95.5889L67.526 91.6518ZM68.3313 95.5712C69.4184 95.3753 70.1408 94.3353 69.945 93.2482C69.7491 92.1611 68.7091 91.4387 67.622 91.6346L68.3313 95.5712ZM73.3261 90.4988C72.2469 90.734 71.5628 91.7996 71.798 92.8789C72.0333 93.9581 73.0989 94.6422 74.1781 94.407L73.3261 90.4988ZM74.2753 94.3858C75.3543 94.1499 76.0379 93.0839 75.802 92.0048C75.566 90.9257 74.5 90.2422 73.421 90.4781L74.2753 94.3858ZM79.0901 89.1324C78.0201 89.4065 77.3748 90.4961 77.6489 91.5661C77.923 92.6362 79.0126 93.2814 80.0826 93.0074L79.0901 89.1324ZM80.1788 92.9827C81.2487 92.708 81.8933 91.618 81.6186 90.5481C81.3439 89.4783 80.2539 88.8337 79.184 89.1084L80.1788 92.9827ZM84.7952 87.5624C83.7356 87.8744 83.1295 88.9862 83.4414 90.0458C83.7533 91.1054 84.8652 91.7116 85.9248 91.3996L84.7952 87.5624ZM86.0201 91.3715C87.0795 91.059 87.685 89.9468 87.3725 88.8874C87.0599 87.8279 85.9477 87.2225 84.8883 87.535L86.0201 91.3715ZM90.4468 85.7893C89.3989 86.1386 88.8326 87.2712 89.1818 88.3191C89.5311 89.367 90.6637 89.9334 91.7116 89.5841L90.4468 85.7893ZM91.8061 89.5526C92.8538 89.2027 93.4195 88.0697 93.0696 87.022C92.7198 85.9743 91.5868 85.4087 90.5391 85.7585L91.8061 89.5526ZM96.0279 83.8183C94.9931 84.2047 94.4674 85.3567 94.8537 86.3915C95.24 87.4263 96.392 87.952 97.4269 87.5657L96.0279 83.8183ZM97.5199 87.5309C98.5545 87.144 99.0796 85.9917 98.6926 84.9571C98.3057 83.9225 97.1533 83.3975 96.1188 83.7844L97.5199 87.5309ZM101.536 81.6483C100.516 82.0717 100.032 83.242 100.456 84.2622C100.879 85.2824 102.049 85.7662 103.069 85.3428L101.536 81.6483ZM103.161 85.3047C104.181 84.8807 104.664 83.7101 104.24 82.6902C103.816 81.6702 102.646 81.1871 101.626 81.6111L103.161 85.3047ZM106.96 79.2803C105.956 79.7409 105.515 80.9282 105.976 81.9321C106.437 82.9361 107.624 83.3765 108.628 82.9158L106.96 79.2803ZM108.718 82.8744C109.722 82.4131 110.161 81.2256 109.7 80.2219C109.239 79.2183 108.051 78.7785 107.048 79.2398L108.718 82.8744ZM112.289 76.7123C111.303 77.2106 110.908 78.4137 111.407 79.3995C111.905 80.3853 113.108 80.7805 114.094 80.2822L112.289 76.7123ZM114.183 80.2373C115.168 79.7384 115.562 78.535 115.064 77.5496C114.565 76.5641 113.361 76.1697 112.376 76.6686L114.183 80.2373ZM117.514 73.9425C116.548 74.479 116.201 75.6966 116.737 76.6622C117.274 77.6277 118.491 77.9755 119.457 77.439L117.514 73.9425ZM119.544 77.3906C120.509 76.8534 120.856 75.6356 120.319 74.6704C119.782 73.7052 118.564 73.3582 117.599 73.8954L119.544 77.3906ZM122.621 70.9679C121.678 71.5433 121.38 72.7741 121.956 73.717C122.531 74.6598 123.762 74.9577 124.705 74.3823L122.621 70.9679ZM124.79 74.3304C125.732 73.7544 126.029 72.5234 125.453 71.5809C124.877 70.6385 123.646 70.3414 122.704 70.9174L124.79 74.3304ZM127.596 67.7855C126.679 68.4006 126.433 69.6429 127.048 70.5604C127.663 71.4779 128.906 71.7231 129.823 71.1081L127.596 67.7855ZM129.906 71.0525C130.823 70.4368 131.068 69.1943 130.452 68.2772C129.836 67.3602 128.594 67.1159 127.677 67.7316L129.906 71.0525ZM132.425 64.391C131.536 65.0464 131.346 66.2985 132.002 67.1876C132.657 68.0767 133.91 68.266 134.799 67.6106L132.425 64.391ZM134.879 67.5514C135.767 66.8952 135.956 65.643 135.3 64.7544C134.644 63.8659 133.391 63.6774 132.503 64.3336L134.879 67.5514ZM137.087 60.7824C136.23 61.479 136.1 62.7387 136.797 63.5959C137.493 64.453 138.753 64.5832 139.61 63.8865L137.087 60.7824ZM139.688 63.8235C140.544 63.1262 140.674 61.8664 139.976 61.0098C139.279 60.1532 138.019 60.024 137.163 60.7213L139.688 63.8235ZM141.567 56.9541C140.746 57.6926 140.679 58.9571 141.417 59.7785C142.156 60.6 143.42 60.6672 144.242 59.9288L141.567 56.9541ZM144.316 59.8619C145.137 59.1228 145.203 57.8582 144.464 57.0374C143.725 56.2166 142.46 56.1504 141.639 56.8895L144.316 59.8619ZM145.839 52.9073C145.058 53.688 145.057 54.9544 145.838 55.7358C146.619 56.5172 147.885 56.5177 148.666 55.737L145.839 52.9073ZM0.527317 184.894C1.59387 185.181 2.69138 184.55 2.97866 183.483C3.26595 182.416 2.63423 181.319 1.56767 181.032L0.527317 184.894ZM7.36115 182.326C6.27517 182.124 5.23122 182.841 5.02941 183.926C4.82761 185.012 5.54437 186.056 6.63035 186.258L7.36115 182.326ZM6.73352 186.277C7.81971 186.478 8.86293 185.76 9.06362 184.674C9.26431 183.588 8.54647 182.545 7.46029 182.344L6.73352 186.277ZM13.4093 183.279C12.3144 183.133 11.3088 183.903 11.1632 184.998C11.0177 186.093 11.7873 187.099 12.8822 187.244L13.4093 183.279ZM12.9826 187.257C14.0777 187.402 15.0827 186.632 15.2275 185.537C15.3723 184.442 14.602 183.437 13.507 183.292L12.9826 187.257ZM19.5011 183.967C18.4015 183.863 17.4257 184.67 17.3216 185.77C17.2176 186.869 18.0247 187.845 19.1243 187.949L19.5011 183.967ZM19.2256 187.959C20.3253 188.062 21.3007 187.255 21.4042 186.155C21.5076 185.055 20.7 184.08 19.6003 183.976L19.2256 187.959ZM25.6341 184.45C24.5318 184.38 23.5811 185.216 23.5106 186.318C23.4402 187.421 24.2767 188.371 25.3791 188.442L25.6341 184.45ZM25.4806 188.448C26.583 188.518 27.5333 187.681 27.6032 186.579C27.6731 185.477 26.8362 184.526 25.7338 184.456L25.4806 188.448ZM31.7897 184.76C30.6859 184.719 29.7576 185.58 29.7161 186.684C29.6747 187.788 30.536 188.716 31.6398 188.758L31.7897 184.76ZM31.7413 188.761C32.8451 188.802 33.7732 187.941 33.8141 186.837C33.8551 185.733 32.9935 184.805 31.8897 184.764L31.7413 188.761ZM37.9474 184.917C36.8429 184.902 35.9352 185.785 35.92 186.89C35.9047 187.994 36.7877 188.902 37.8922 188.917L37.9474 184.917ZM37.9953 188.918C39.0998 188.933 40.0072 188.05 40.022 186.945C40.0368 185.841 39.1535 184.934 38.049 184.919L37.9953 188.918ZM44.1137 184.933C43.0092 184.943 42.1214 185.846 42.1307 186.95C42.1401 188.055 43.043 188.942 44.1476 188.933L44.1137 184.933ZM44.2502 188.932C45.3548 188.922 46.2422 188.019 46.2325 186.915C46.2227 185.81 45.3194 184.923 44.2149 184.932L44.2502 188.932ZM50.2836 184.814C49.1796 184.847 48.3114 185.769 48.3446 186.873C48.3778 187.977 49.2997 188.846 50.4037 188.812L50.2836 184.814ZM50.5061 188.809C51.6101 188.776 52.4779 187.854 52.4444 186.749C52.4108 185.645 51.4886 184.778 50.3845 184.811L50.5061 188.809ZM56.4499 184.563C55.3468 184.62 54.4987 185.56 54.5555 186.663C54.6124 187.766 55.5527 188.614 56.6558 188.557L56.4499 184.563ZM56.7585 188.552C57.8615 188.495 58.7094 187.554 58.6521 186.451C58.5948 185.348 57.6542 184.5 56.5511 184.558L56.7585 188.552ZM62.6056 184.178C61.504 184.259 60.6767 185.218 60.7576 186.319C60.8386 187.421 61.7973 188.248 62.8989 188.167L62.6056 184.178ZM63.0012 188.16C64.1028 188.079 64.9298 187.12 64.8484 186.018C64.767 184.916 63.808 184.089 62.7065 184.171L63.0012 188.16ZM68.7511 183.656C67.6517 183.762 66.8464 184.74 66.9526 185.839C67.0587 186.939 68.0361 187.744 69.1355 187.638L68.7511 183.656ZM69.2377 187.628C70.3371 187.521 71.142 186.544 71.0354 185.444C70.9288 184.345 69.9512 183.54 68.8518 183.647L69.2377 187.628ZM74.877 182.99C73.7804 183.123 72.9993 184.12 73.1322 185.217C73.2651 186.313 74.2618 187.094 75.3584 186.961L74.877 182.99ZM75.4606 186.949C76.5571 186.816 77.3378 185.819 77.2044 184.722C77.0711 183.626 76.0741 182.845 74.9776 182.978L75.4606 186.949ZM80.9835 182.169C79.8909 182.331 79.1366 183.348 79.2986 184.441C79.4607 185.533 80.4778 186.288 81.5704 186.126L80.9835 182.169ZM81.6718 186.111C82.7644 185.948 83.5183 184.93 83.3557 183.838C83.1931 182.745 82.1757 181.992 81.0831 182.154L81.6718 186.111ZM87.0579 181.177C85.9706 181.372 85.2468 182.411 85.4413 183.498C85.6357 184.585 86.6748 185.309 87.7621 185.115L87.0579 181.177ZM87.8634 185.097C88.9507 184.902 89.6739 183.862 89.4789 182.775C89.2839 181.688 88.2444 180.965 87.1572 181.16L87.8634 185.097ZM93.0864 179.996C92.0064 180.227 91.3183 181.29 91.5496 182.37C91.7808 183.45 92.8439 184.138 93.924 183.907L93.0864 179.996ZM94.0252 183.885C95.1051 183.653 95.7926 182.59 95.5607 181.51C95.3287 180.43 94.2652 179.743 93.1853 179.975L94.0252 183.885ZM99.0531 178.597C97.9831 178.871 97.338 179.961 97.6122 181.031C97.8864 182.101 98.9761 182.746 100.046 182.471L99.0531 178.597ZM100.147 182.446C101.217 182.171 101.861 181.08 101.586 180.011C101.311 178.941 100.221 178.296 99.1513 178.571L100.147 182.446ZM104.937 176.941C103.882 177.267 103.29 178.387 103.616 179.442C103.942 180.498 105.061 181.089 106.117 180.763L104.937 176.941ZM106.214 180.733C107.269 180.407 107.86 179.287 107.533 178.232C107.207 177.176 106.087 176.586 105.032 176.912L106.214 180.733ZM110.639 175.091C109.593 175.447 109.034 176.583 109.39 177.629C109.746 178.675 110.882 179.234 111.928 178.878L110.639 175.091ZM112.022 178.846C113.068 178.489 113.626 177.353 113.27 176.307C112.914 175.262 111.777 174.703 110.732 175.06L112.022 178.846ZM116.277 173.08C115.243 173.466 114.717 174.618 115.103 175.653C115.49 176.688 116.642 177.213 117.677 176.827L116.277 173.08ZM117.771 176.792C118.805 176.405 119.33 175.253 118.943 174.218C118.556 173.184 117.404 172.659 116.369 173.045L117.771 176.792ZM121.849 170.903C120.827 171.321 120.336 172.488 120.753 173.511C121.171 174.534 122.338 175.024 123.361 174.607L121.849 170.903ZM123.454 174.569C124.476 174.151 124.966 172.983 124.548 171.961C124.131 170.938 122.963 170.448 121.94 170.866L123.454 174.569ZM127.35 168.559C126.34 169.008 125.886 170.19 126.335 171.199C126.784 172.208 127.966 172.662 128.975 172.213L127.35 168.559ZM129.067 172.172C130.076 171.723 130.53 170.541 130.081 169.532C129.631 168.523 128.449 168.069 127.44 168.518L129.067 172.172ZM132.773 166.042C131.778 166.523 131.362 167.719 131.843 168.714C132.324 169.708 133.52 170.124 134.514 169.643L132.773 166.042ZM134.605 169.599C135.6 169.118 136.015 167.921 135.534 166.927C135.052 165.933 133.856 165.518 132.862 165.999L134.605 169.599ZM138.112 163.351C137.134 163.865 136.757 165.074 137.27 166.052C137.784 167.03 138.993 167.406 139.971 166.893L138.112 163.351ZM140.06 166.846C141.038 166.332 141.414 165.123 140.9 164.145C140.386 163.167 139.177 162.791 138.199 163.305L140.06 166.846ZM143.357 160.483C142.397 161.029 142.062 162.251 142.608 163.211C143.155 164.17 144.376 164.506 145.336 163.959L143.357 160.483ZM145.424 163.909C146.383 163.362 146.718 162.141 146.171 161.181C145.624 160.222 144.402 159.887 143.443 160.434L145.424 163.909ZM148.498 157.435C147.558 158.015 147.267 159.248 147.847 160.188C148.427 161.128 149.659 161.419 150.599 160.839L148.498 157.435ZM150.684 160.787C151.624 160.206 151.915 158.974 151.335 158.034C150.754 157.094 149.522 156.803 148.582 157.384L150.684 160.787ZM153.522 154.207C152.604 154.822 152.357 156.064 152.972 156.982C153.586 157.9 154.828 158.146 155.746 157.532L153.522 154.207ZM155.829 157.476C156.747 156.862 156.992 155.619 156.378 154.702C155.763 153.784 154.521 153.538 153.603 154.153L155.829 157.476ZM158.413 150.798C157.519 151.447 157.321 152.698 157.97 153.592C158.619 154.486 159.87 154.684 160.763 154.035L158.413 150.798ZM160.845 153.975C161.739 153.325 161.936 152.075 161.287 151.181C160.637 150.288 159.386 150.091 158.493 150.74L160.845 153.975ZM163.169 147.195C162.303 147.88 162.156 149.137 162.841 150.004C163.526 150.87 164.784 151.018 165.65 150.332L163.169 147.195ZM165.729 150.27C166.595 149.585 166.741 148.327 166.055 147.461C165.37 146.595 164.112 146.449 163.246 147.134L165.729 150.27ZM167.762 143.4C166.926 144.122 166.834 145.385 167.557 146.221C168.279 147.056 169.542 147.148 170.378 146.426L167.762 143.4ZM170.454 146.36C171.289 145.637 171.38 144.374 170.657 143.539C169.934 142.704 168.671 142.613 167.836 143.336L170.454 146.36ZM172.168 139.405C171.368 140.167 171.337 141.433 172.099 142.232C172.861 143.032 174.127 143.063 174.927 142.301L172.168 139.405ZM175 142.232C175.799 141.469 175.828 140.203 175.066 139.404C174.303 138.605 173.037 138.575 172.238 139.338L175 142.232ZM176.347 135.204C175.59 136.009 175.63 137.274 176.435 138.031C177.24 138.787 178.506 138.747 179.262 137.942L176.347 135.204ZM14.2403 139.695C15.3305 139.872 16.3583 139.132 16.5359 138.042C16.7136 136.952 15.9739 135.924 14.8837 135.747L14.2403 139.695ZM20.7435 136.597C19.6477 136.458 18.6463 137.233 18.5068 138.328C18.3672 139.424 19.1423 140.426 20.238 140.565L20.7435 136.597ZM20.3385 140.578C21.4343 140.717 22.4352 139.941 22.5742 138.845C22.7131 137.75 21.9374 136.749 20.8416 136.61L20.3385 140.578ZM26.7269 137.252C25.6269 137.151 24.6537 137.961 24.5533 139.061C24.4528 140.161 25.263 141.134 26.363 141.235L26.7269 137.252ZM26.4638 141.244C27.5639 141.344 28.5366 140.533 28.6364 139.433C28.7362 138.333 27.9254 137.36 26.8253 137.26L26.4638 141.244ZM32.7288 137.692C31.6259 137.631 30.6823 138.475 30.6212 139.578C30.5602 140.681 31.4047 141.625 32.5076 141.686L32.7288 137.692ZM32.6085 141.691C33.7114 141.752 34.6545 140.907 34.7149 139.804C34.7753 138.701 33.9302 137.758 32.8273 137.697L32.6085 141.691ZM38.7414 137.917C37.637 137.895 36.7244 138.773 36.7029 139.877C36.6815 140.982 37.5594 141.894 38.6637 141.916L38.7414 137.917ZM38.7647 141.918C39.869 141.939 40.7812 141.06 40.802 139.956C40.8228 138.851 39.9444 137.939 38.84 137.918L38.7647 141.918ZM44.7572 137.925C43.6528 137.944 42.7723 138.854 42.7906 139.958C42.8089 141.063 43.719 141.943 44.8235 141.925L44.7572 137.925ZM44.9243 141.923C46.0287 141.904 46.9087 140.993 46.8897 139.889C46.8708 138.785 45.9601 137.905 44.8557 137.924L44.9243 141.923ZM50.7684 137.717C49.6654 137.775 48.8183 138.717 48.8763 139.82C48.9344 140.923 49.8757 141.77 50.9787 141.712L50.7684 137.717ZM51.0794 141.706C52.1824 141.648 53.0289 140.706 52.9702 139.603C52.9114 138.5 51.9697 137.653 50.8667 137.712L51.0794 141.706ZM56.7683 137.293C55.6681 137.39 54.8555 138.362 54.9534 139.462C55.0512 140.562 56.0224 141.375 57.1227 141.277L56.7683 137.293ZM57.2235 141.268C58.3237 141.169 59.1357 140.198 59.0372 139.098C58.9387 137.997 57.967 137.185 56.8668 137.284L57.2235 141.268ZM62.7525 136.651C61.6565 136.789 60.8795 137.789 61.0171 138.885C61.1546 139.981 62.1546 140.758 63.2505 140.62L62.7525 136.651ZM63.3509 140.608C64.4468 140.469 65.2232 139.469 65.085 138.373C64.9468 137.277 63.9464 136.501 62.8505 136.639L63.3509 140.608ZM68.7084 135.794C67.6181 135.971 66.8778 136.999 67.0549 138.089C67.2319 139.179 68.2593 139.92 69.3496 139.743L68.7084 135.794ZM69.4493 139.726C70.5395 139.549 71.2792 138.521 71.1015 137.431C70.9238 136.34 69.896 135.601 68.8058 135.778L69.4493 139.726ZM74.6283 134.723C73.5452 134.939 72.8425 135.993 73.0588 137.076C73.2751 138.159 74.3286 138.862 75.4118 138.645L74.6283 134.723ZM75.5108 138.626C76.5938 138.409 77.2959 137.355 77.0789 136.272C76.8619 135.189 75.808 134.486 74.725 134.703L75.5108 138.626ZM80.5045 133.438C79.4299 133.694 78.7657 134.772 79.0211 135.846C79.2764 136.921 80.3546 137.585 81.4293 137.33L80.5045 133.438ZM81.5274 137.307C82.6018 137.051 83.2654 135.972 83.0094 134.898C82.7534 133.823 81.6748 133.159 80.6003 133.415L81.5274 137.307ZM86.3304 131.942C85.2657 132.236 84.641 133.338 84.9351 134.402C85.2291 135.467 86.3307 136.092 87.3954 135.798L86.3304 131.942ZM87.4929 135.771C88.5575 135.476 89.1815 134.374 88.8868 133.31C88.5921 132.245 87.4902 131.621 86.4257 131.916L87.4929 135.771ZM92.1013 130.235C91.048 130.567 90.4636 131.691 90.796 132.744C91.1285 133.798 92.2519 134.382 93.3053 134.049L92.1013 130.235ZM93.4017 134.019C94.4549 133.686 95.0386 132.562 94.7055 131.509C94.3724 130.456 93.2486 129.872 92.1955 130.205L93.4017 134.019ZM97.8051 128.32C96.7645 128.691 96.2213 129.835 96.5918 130.875C96.9623 131.916 98.1062 132.459 99.1468 132.088L97.8051 128.32ZM99.2419 132.055C100.282 131.683 100.825 130.539 100.454 129.499C100.083 128.458 98.9383 127.916 97.898 128.287L99.2419 132.055ZM103.434 126.2C102.408 126.608 101.906 127.771 102.314 128.797C102.723 129.824 103.886 130.325 104.912 129.917L103.434 126.2ZM105.006 129.88C106.032 129.471 106.532 128.308 106.124 127.281C105.715 126.255 104.552 125.755 103.525 126.163L105.006 129.88ZM108.98 123.876C107.969 124.322 107.511 125.502 107.956 126.513C108.402 127.524 109.582 127.982 110.593 127.537L108.98 123.876ZM110.686 127.496C111.696 127.05 112.154 125.869 111.708 124.859C111.262 123.848 110.081 123.391 109.071 123.837L110.686 127.496ZM114.441 121.349C113.448 121.832 113.033 123.028 113.515 124.022C113.997 125.016 115.194 125.43 116.188 124.948L114.441 121.349ZM116.279 124.904C117.272 124.421 117.686 123.224 117.203 122.231C116.72 121.238 115.524 120.824 114.53 121.306L116.279 124.904ZM119.804 118.624C118.829 119.143 118.458 120.354 118.977 121.329C119.496 122.304 120.707 122.674 121.682 122.156L119.804 118.624ZM121.771 122.108C122.746 121.589 123.115 120.378 122.596 119.403C122.077 118.428 120.866 118.058 119.891 118.578L121.771 122.108ZM125.059 115.702C124.104 116.257 123.779 117.481 124.334 118.436C124.888 119.391 126.112 119.716 127.068 119.162L125.059 115.702ZM127.155 119.111C128.11 118.556 128.434 117.331 127.879 116.377C127.323 115.422 126.099 115.098 125.144 115.653L127.155 119.111ZM130.201 112.586C129.267 113.176 128.989 114.412 129.579 115.345C130.169 116.279 131.405 116.558 132.338 115.967L130.201 112.586ZM132.424 115.913C133.357 115.322 133.635 114.087 133.044 113.154C132.453 112.22 131.218 111.943 130.284 112.533L132.424 115.913ZM135.223 109.276C134.312 109.902 134.081 111.147 134.706 112.057C135.332 112.968 136.577 113.199 137.487 112.574L135.223 109.276ZM137.571 112.516C138.481 111.89 138.711 110.645 138.085 109.735C137.459 108.825 136.214 108.595 135.304 109.221L137.571 112.516ZM140.111 105.778C139.225 106.438 139.043 107.691 139.703 108.577C140.363 109.463 141.616 109.646 142.501 108.986L140.111 105.778ZM142.582 108.925C143.468 108.264 143.65 107.011 142.989 106.126C142.328 105.241 141.075 105.059 140.19 105.719L142.582 108.925ZM144.857 102.095C143.997 102.789 143.864 104.048 144.558 104.907C145.253 105.767 146.512 105.9 147.371 105.206L144.857 102.095ZM147.45 105.142C148.308 104.447 148.441 103.188 147.746 102.329C147.051 101.471 145.792 101.338 144.933 102.033L147.45 105.142ZM149.455 98.2236C148.625 98.9518 148.542 100.215 149.27 101.046C149.998 101.877 151.262 101.96 152.092 101.231L149.455 98.2236ZM152.168 101.165C152.999 100.436 153.081 99.1723 152.352 98.3422C151.623 97.5121 150.36 97.4299 149.53 98.1586L152.168 101.165ZM153.891 94.1727C153.091 94.9341 153.06 96.2 153.821 97.0002C154.582 97.8004 155.848 97.8319 156.648 97.0704L153.891 94.1727ZM156.722 97.0007C157.521 96.2388 157.552 94.9728 156.79 94.1731C156.028 93.3735 154.762 93.3429 153.962 94.1048L156.722 97.0007ZM158.153 89.9457C157.385 90.7398 157.406 92.006 158.2 92.7737C158.994 93.5415 160.261 93.5201 161.028 92.7259L158.153 89.9457ZM40.3625 52.7625C40.3791 52.7625 40.3957 52.7625 40.4123 52.7625L40.4099 48.7625C40.3941 48.7625 40.3783 48.7625 40.3625 48.7625V52.7625ZM46.5292 52.5525C46.5628 52.5503 46.5965 52.5481 46.6301 52.5459L46.3681 48.5545C46.3356 48.5566 46.3032 48.5587 46.2708 48.5608L46.5292 52.5525ZM52.6887 51.9919C52.7224 51.988 52.7562 51.9841 52.79 51.9802L52.3265 48.0071C52.2937 48.0109 52.261 48.0147 52.2282 48.0185L52.6887 51.9919ZM58.8174 51.1415C58.8504 51.1362 58.8834 51.1309 58.9164 51.1256L58.2777 47.1769C58.2456 47.1821 58.2135 47.1873 58.1815 47.1924L58.8174 51.1415ZM64.8876 50.0345C64.9206 50.0278 64.9536 50.021 64.9865 50.0143L64.1861 46.0952C64.154 46.1018 64.1219 46.1083 64.0898 46.1148L64.8876 50.0345ZM70.9106 48.6824C70.9434 48.6744 70.9762 48.6663 71.009 48.6582L70.0527 44.7742C70.0208 44.7821 69.9888 44.7899 69.9569 44.7978L70.9106 48.6824ZM76.8755 47.0915C76.908 47.0821 76.9405 47.0727 76.973 47.0633L75.8627 43.2205C75.831 43.2297 75.7994 43.2388 75.7678 43.2479L76.8755 47.0915ZM82.7729 45.2618C82.805 45.2511 82.8371 45.2404 82.8691 45.2297L81.6036 41.4352C81.5724 41.4456 81.5411 41.456 81.5099 41.4664L82.7729 45.2618ZM88.5919 43.1896C88.6235 43.1776 88.6552 43.1655 88.6868 43.1535L87.2628 39.4155C87.2321 39.4272 87.2014 39.4389 87.1706 39.4506L88.5919 43.1896ZM94.3201 40.8679C94.3511 40.8545 94.3822 40.8411 94.4132 40.8277L92.8262 37.156C92.796 37.1691 92.7659 37.1821 92.7357 37.1951L94.3201 40.8679ZM99.9419 38.2879C99.9723 38.2731 100.003 38.2582 100.033 38.2434L98.2771 34.6494C98.2477 34.6638 98.2182 34.6782 98.1888 34.6926L99.9419 38.2879ZM105.439 35.4391C105.469 35.4228 105.498 35.4064 105.528 35.3901L103.597 31.8873C103.568 31.9031 103.539 31.9189 103.511 31.9347L105.439 35.4391ZM110.789 32.3103C110.818 32.2924 110.847 32.2745 110.876 32.2566L108.762 28.8606C108.734 28.8779 108.707 28.8951 108.679 28.9124L110.789 32.3103ZM115.967 28.8903C115.995 28.8708 116.023 28.8513 116.05 28.8318L113.748 25.5606C113.722 25.5794 113.695 25.5981 113.668 25.6169L115.967 28.8903ZM120.943 25.1692C120.969 25.148 120.996 25.1269 121.022 25.1057L118.527 21.9797C118.501 22 118.476 22.0203 118.45 22.0406L120.943 25.1692ZM125.683 21.1392C125.695 21.1278 125.708 21.1163 125.72 21.1049L123.03 18.1451C123.018 18.1561 123.006 18.1671 122.993 18.178L125.683 21.1392ZM31.9352 97.4023C31.9516 97.4039 31.968 97.4056 31.9845 97.4073L32.3871 93.4276C32.3714 93.426 32.3556 93.4244 32.3398 93.4228L31.9352 97.4023ZM37.9713 97.8355C38.0049 97.8369 38.0384 97.8384 38.0719 97.8398L38.2411 93.8434C38.2088 93.842 38.1765 93.8406 38.1441 93.8392L37.9713 97.8355ZM44.0632 97.9378C44.0965 97.9375 44.1298 97.9372 44.1631 97.9369L44.1251 93.9371C44.0929 93.9374 44.0607 93.9377 44.0285 93.938L44.0632 97.9378ZM50.1489 97.74C50.1819 97.7381 50.2149 97.7363 50.2479 97.7344L50.0227 93.7408C49.9906 93.7426 49.9586 93.7444 49.9266 93.7462L50.1489 97.74ZM56.2085 97.2697C56.2417 97.2664 56.2749 97.2631 56.3081 97.2598L55.9108 93.2795C55.8785 93.2828 55.8463 93.286 55.814 93.2892L56.2085 97.2697ZM62.2359 96.5478C62.2687 96.5432 62.3015 96.5386 62.3344 96.534L61.7768 92.5731C61.7448 92.5776 61.7129 92.5821 61.6809 92.5865L62.2359 96.5478ZM68.2329 95.5889C68.2657 95.583 68.2985 95.5771 68.3313 95.5712L67.622 91.6346C67.59 91.6403 67.558 91.6461 67.526 91.6518L68.2329 95.5889ZM74.1781 94.407C74.2105 94.3999 74.2429 94.3929 74.2753 94.3858L73.421 90.4781C73.3894 90.485 73.3577 90.4919 73.3261 90.4988L74.1781 94.407ZM80.0826 93.0074C80.1147 92.9991 80.1467 92.9909 80.1788 92.9827L79.184 89.1084C79.1527 89.1164 79.1214 89.1244 79.0901 89.1324L80.0826 93.0074ZM85.9248 91.3996C85.9566 91.3903 85.9883 91.3809 86.0201 91.3715L84.8883 87.535C84.8572 87.5442 84.8262 87.5533 84.7952 87.5624L85.9248 91.3996ZM91.7116 89.5841C91.7431 89.5736 91.7746 89.5631 91.8061 89.5526L90.5391 85.7585C90.5084 85.7688 90.4776 85.7791 90.4468 85.7893L91.7116 89.5841ZM97.4269 87.5657C97.4579 87.5541 97.4889 87.5425 97.5199 87.5309L96.1188 83.7844C96.0885 83.7957 96.0582 83.807 96.0279 83.8183L97.4269 87.5657ZM103.069 85.3428C103.1 85.3301 103.131 85.3174 103.161 85.3047L101.626 81.6111C101.596 81.6235 101.566 81.6359 101.536 81.6483L103.069 85.3428ZM108.628 82.9158C108.658 82.902 108.688 82.8882 108.718 82.8744L107.048 79.2398C107.018 79.2533 106.989 79.2668 106.96 79.2803L108.628 82.9158ZM114.094 80.2822C114.123 80.2672 114.153 80.2523 114.183 80.2373L112.376 76.6686C112.347 76.6832 112.318 76.6978 112.289 76.7123L114.094 80.2822ZM119.457 77.439C119.486 77.4228 119.515 77.4067 119.544 77.3906L117.599 73.8954C117.57 73.9111 117.542 73.9268 117.514 73.9425L119.457 77.439ZM124.705 74.3823C124.733 74.365 124.761 74.3477 124.79 74.3304L122.704 70.9174C122.676 70.9343 122.648 70.9511 122.621 70.9679L124.705 74.3823ZM129.823 71.1081C129.851 71.0896 129.879 71.0711 129.906 71.0525L127.677 67.7316C127.65 67.7496 127.623 67.7676 127.596 67.7855L129.823 71.1081ZM134.799 67.6106C134.825 67.5908 134.852 67.5711 134.879 67.5514L132.503 64.3336C132.477 64.3527 132.451 64.3718 132.425 64.391L134.799 67.6106ZM139.61 63.8865C139.636 63.8655 139.662 63.8445 139.688 63.8235L137.163 60.7213C137.138 60.7417 137.112 60.7621 137.087 60.7824L139.61 63.8865ZM144.242 59.9288C144.266 59.9065 144.291 59.8842 144.316 59.8619L141.639 56.8895C141.615 56.9111 141.591 56.9326 141.567 56.9541L144.242 59.9288ZM148.666 55.737C148.678 55.7252 148.69 55.7135 148.702 55.7017L145.873 52.8733C145.862 52.8846 145.851 52.896 145.839 52.9073L148.666 55.737ZM0.478182 184.881C0.494546 184.885 0.510925 184.89 0.527317 184.894L1.56767 181.032C1.55237 181.028 1.53709 181.023 1.52182 181.019L0.478182 184.881ZM6.63035 186.258C6.6647 186.265 6.69909 186.271 6.73352 186.277L7.46029 182.344C7.4272 182.338 7.39415 182.332 7.36115 182.326L6.63035 186.258ZM12.8822 187.244C12.9157 187.249 12.9491 187.253 12.9826 187.257L13.507 183.292C13.4744 183.288 13.4418 183.283 13.4093 183.279L12.8822 187.244ZM19.1243 187.949C19.1581 187.952 19.1918 187.955 19.2256 187.959L19.6003 183.976C19.5672 183.973 19.5342 183.97 19.5011 183.967L19.1243 187.949ZM25.3791 188.442C25.4129 188.444 25.4468 188.446 25.4806 188.448L25.7338 184.456C25.7006 184.454 25.6673 184.452 25.6341 184.45L25.3791 188.442ZM31.6398 188.758C31.6736 188.759 31.7075 188.76 31.7413 188.761L31.8897 184.764C31.8563 184.763 31.823 184.762 31.7897 184.76L31.6398 188.758ZM37.8922 188.917C37.9266 188.917 37.961 188.918 37.9953 188.918L38.049 184.919C38.0151 184.918 37.9812 184.918 37.9474 184.917L37.8922 188.917ZM44.1476 188.933C44.1818 188.933 44.216 188.932 44.2502 188.932L44.2149 184.932C44.1812 184.933 44.1474 184.933 44.1137 184.933L44.1476 188.933ZM50.4037 188.812C50.4378 188.811 50.472 188.81 50.5061 188.809L50.3845 184.811C50.3509 184.812 50.3173 184.813 50.2836 184.814L50.4037 188.812ZM56.6558 188.557C56.69 188.556 56.7242 188.554 56.7585 188.552L56.5511 184.558C56.5174 184.559 56.4837 184.561 56.4499 184.563L56.6558 188.557ZM62.8989 188.167C62.933 188.165 62.9671 188.162 63.0012 188.16L62.7065 184.171C62.6728 184.173 62.6392 184.176 62.6056 184.178L62.8989 188.167ZM69.1355 187.638C69.1696 187.635 69.2036 187.631 69.2377 187.628L68.8518 183.647C68.8182 183.65 68.7847 183.653 68.7511 183.656L69.1355 187.638ZM75.3584 186.961C75.3924 186.957 75.4265 186.953 75.4606 186.949L74.9776 182.978C74.944 182.982 74.9105 182.986 74.877 182.99L75.3584 186.961ZM81.5704 186.126C81.6042 186.121 81.638 186.116 81.6718 186.111L81.0831 182.154C81.0499 182.159 81.0167 182.164 80.9835 182.169L81.5704 186.126ZM87.7621 185.115C87.7959 185.109 87.8297 185.103 87.8634 185.097L87.1572 181.16C87.1241 181.165 87.091 181.171 87.0579 181.177L87.7621 185.115ZM93.924 183.907C93.9577 183.9 93.9915 183.893 94.0252 183.885L93.1853 179.975C93.1523 179.982 93.1194 179.989 93.0864 179.996L93.924 183.907ZM100.046 182.471C100.08 182.463 100.113 182.454 100.147 182.446L99.1513 178.571C99.1186 178.58 99.0858 178.588 99.0531 178.597L100.046 182.471ZM106.117 180.763C106.133 180.758 106.149 180.753 106.166 180.748L104.984 176.927C104.969 176.932 104.953 176.936 104.937 176.941L106.117 180.763ZM106.166 180.748C106.182 180.743 106.198 180.738 106.214 180.733L105.032 176.912C105.016 176.917 105 176.922 104.984 176.927L106.166 180.748ZM111.928 178.878C111.959 178.867 111.991 178.856 112.022 178.846L110.732 175.06C110.701 175.07 110.67 175.081 110.639 175.091L111.928 178.878ZM117.677 176.827C117.708 176.815 117.739 176.804 117.771 176.792L116.369 173.045C116.339 173.057 116.308 173.068 116.277 173.08L117.677 176.827ZM123.361 174.607C123.392 174.594 123.423 174.581 123.454 174.569L121.94 170.866C121.91 170.879 121.88 170.891 121.849 170.903L123.361 174.607ZM128.975 172.213C129.006 172.2 129.037 172.186 129.067 172.172L127.44 168.518C127.41 168.532 127.38 168.545 127.35 168.559L128.975 172.213ZM134.514 169.643C134.545 169.629 134.575 169.614 134.605 169.599L132.862 165.999C132.832 166.014 132.803 166.028 132.773 166.042L134.514 169.643ZM139.971 166.893C140.001 166.877 140.031 166.861 140.06 166.846L138.199 163.305C138.17 163.321 138.141 163.336 138.112 163.351L139.971 166.893ZM145.336 163.959C145.365 163.942 145.394 163.926 145.424 163.909L143.443 160.434C143.414 160.45 143.386 160.467 143.357 160.483L145.336 163.959ZM150.599 160.839C150.627 160.822 150.656 160.804 150.684 160.787L148.582 157.384C148.554 157.401 148.526 157.418 148.498 157.435L150.599 160.839ZM155.746 157.532C155.774 157.514 155.802 157.495 155.829 157.476L153.603 154.153C153.576 154.171 153.549 154.189 153.522 154.207L155.746 157.532ZM160.763 154.035C160.791 154.015 160.818 153.995 160.845 153.975L158.493 150.74C158.466 150.76 158.439 150.779 158.413 150.798L160.763 154.035ZM165.65 150.332C165.676 150.312 165.703 150.291 165.729 150.27L163.246 147.134C163.22 147.154 163.195 147.175 163.169 147.195L165.65 150.332ZM170.378 146.426C170.403 146.404 170.428 146.382 170.454 146.36L167.836 143.336C167.811 143.357 167.786 143.379 167.762 143.4L170.378 146.426ZM174.927 142.301C174.951 142.278 174.975 142.255 175 142.232L172.238 139.338C172.215 139.36 172.191 139.382 172.168 139.405L174.927 142.301ZM179.262 137.942C179.273 137.93 179.285 137.918 179.296 137.906L176.379 135.169C176.368 135.18 176.357 135.192 176.347 135.204L179.262 137.942ZM14.1902 139.686C14.2069 139.689 14.2236 139.692 14.2403 139.695L14.8837 135.747C14.8674 135.744 14.8511 135.741 14.8348 135.739L14.1902 139.686ZM20.238 140.565C20.2715 140.569 20.305 140.574 20.3385 140.578L20.8416 136.61C20.8089 136.606 20.7762 136.601 20.7435 136.597L20.238 140.565ZM26.363 141.235C26.3966 141.238 26.4302 141.241 26.4638 141.244L26.8253 137.26C26.7925 137.258 26.7597 137.255 26.7269 137.252L26.363 141.235ZM32.5076 141.686C32.5412 141.688 32.5749 141.689 32.6085 141.691L32.8273 137.697C32.7945 137.695 32.7616 137.694 32.7288 137.692L32.5076 141.686ZM38.6637 141.916C38.6974 141.917 38.731 141.917 38.7647 141.918L38.84 137.918C38.8071 137.918 38.7743 137.917 38.7414 137.917L38.6637 141.916ZM44.8235 141.925C44.8571 141.924 44.8907 141.924 44.9243 141.923L44.8557 137.924C44.8229 137.924 44.79 137.925 44.7572 137.925L44.8235 141.925ZM50.9787 141.712C51.0123 141.71 51.0458 141.708 51.0794 141.706L50.8667 137.712C50.8339 137.714 50.8012 137.716 50.7684 137.717L50.9787 141.712ZM57.1227 141.277C57.1563 141.274 57.1899 141.271 57.2235 141.268L56.8668 137.284C56.834 137.287 56.8012 137.29 56.7683 137.293L57.1227 141.277ZM63.2505 140.62C63.284 140.616 63.3175 140.612 63.3509 140.608L62.8505 136.639C62.8178 136.643 62.7852 136.647 62.7525 136.651L63.2505 140.62ZM69.3496 139.743C69.3828 139.737 69.4161 139.732 69.4493 139.726L68.8058 135.778C68.7733 135.784 68.7409 135.789 68.7084 135.794L69.3496 139.743ZM75.4118 138.645C75.4448 138.639 75.4778 138.632 75.5108 138.626L74.725 134.703C74.6928 134.71 74.6606 134.716 74.6283 134.723L75.4118 138.645ZM81.4293 137.33C81.462 137.322 81.4947 137.314 81.5274 137.307L80.6003 133.415C80.5684 133.423 80.5365 133.431 80.5045 133.438L81.4293 137.33ZM87.3954 135.798C87.4279 135.789 87.4604 135.78 87.4929 135.771L86.4257 131.916C86.3939 131.925 86.3622 131.933 86.3304 131.942L87.3954 135.798ZM93.3053 134.049C93.3374 134.039 93.3696 134.029 93.4017 134.019L92.1955 130.205C92.1641 130.215 92.1327 130.225 92.1013 130.235L93.3053 134.049ZM99.1468 132.088C99.1785 132.077 99.2102 132.066 99.2419 132.055L97.898 128.287C97.867 128.298 97.836 128.309 97.8051 128.32L99.1468 132.088ZM104.912 129.917C104.943 129.904 104.974 129.892 105.006 129.88L103.525 126.163C103.495 126.176 103.464 126.188 103.434 126.2L104.912 129.917ZM110.593 127.537C110.624 127.523 110.655 127.51 110.686 127.496L109.071 123.837C109.04 123.85 109.01 123.863 108.98 123.876L110.593 127.537ZM116.188 124.948C116.218 124.933 116.248 124.919 116.279 124.904L114.53 121.306C114.501 121.321 114.471 121.335 114.441 121.349L116.188 124.948ZM121.682 122.156C121.712 122.14 121.741 122.124 121.771 122.108L119.891 118.578C119.862 118.593 119.833 118.609 119.804 118.624L121.682 122.156ZM127.068 119.162C127.097 119.145 127.126 119.128 127.155 119.111L125.144 115.653C125.116 115.669 125.088 115.686 125.059 115.702L127.068 119.162ZM132.338 115.967C132.367 115.949 132.395 115.931 132.424 115.913L130.284 112.533C130.257 112.551 130.229 112.569 130.201 112.586L132.338 115.967ZM137.487 112.574C137.515 112.555 137.543 112.535 137.571 112.516L135.304 109.221C135.277 109.239 135.25 109.258 135.223 109.276L137.487 112.574ZM142.501 108.986C142.528 108.965 142.555 108.945 142.582 108.925L140.19 105.719C140.164 105.739 140.137 105.759 140.111 105.778L142.501 108.986ZM147.371 105.206C147.397 105.185 147.423 105.163 147.45 105.142L144.933 102.033C144.908 102.053 144.882 102.074 144.857 102.095L147.371 105.206ZM152.092 101.231C152.118 101.209 152.143 101.187 152.168 101.165L149.53 98.1586C149.505 98.1803 149.48 98.2019 149.455 98.2236L152.092 101.231ZM156.648 97.0704C156.673 97.0472 156.697 97.024 156.722 97.0007L153.962 94.1048C153.939 94.1275 153.915 94.1501 153.891 94.1727L156.648 97.0704ZM161.028 92.7259C161.04 92.7138 161.052 92.7018 161.063 92.6897L158.187 89.9104C158.175 89.9222 158.164 89.9339 158.153 89.9457L161.028 92.7259Z" fill="#FFB40D"/>
</g>
</g>
</svg>
