<svg width="106" height="69" viewBox="0 0 106 69" fill="none" xmlns="http://www.w3.org/2000/svg">
<g id="Layer_1" clip-path="url(#clip0_77_8086)">
<g id="Group">
<path id="Vector" d="M105.924 28.077H0V20.5798H105.924V28.077Z" fill="#AA6936"/>
<path id="Vector_2" d="M105.924 59.8154H0V52.3182H105.924V59.8154Z" fill="#AA6936"/>
<path id="Vector_3" d="M18.2518 68.5392H5.69507V10.3179L11.9765 0L18.2518 10.3179V68.5392Z" fill="#BA7C46"/>
<path id="Vector_4" d="M38.9925 68.5392H26.4358V10.3179L32.7173 0L38.9925 10.3179V68.5392Z" fill="#DBA367"/>
<path id="Vector_5" d="M59.2904 68.5392H46.7336V10.3179L53.0151 0L59.2904 10.3179V68.5392Z" fill="#BA7C46"/>
<path id="Vector_6" d="M79.0081 68.5392H66.4514V10.3179L72.7329 0L79.0081 10.3179V68.5392Z" fill="#DBA367"/>
<path id="Vector_7" d="M99.7487 68.5392H87.192V10.3179L93.4735 0L99.7487 10.3179V68.5392Z" fill="#BA7C46"/>
</g>
<g id="Group_2">
<path id="Vector_8" d="M93.3425 25.3247C94.1245 25.3247 94.7585 24.6918 94.7585 23.9112C94.7585 23.1305 94.1245 22.4977 93.3425 22.4977C92.5605 22.4977 91.9265 23.1305 91.9265 23.9112C91.9265 24.6918 92.5605 25.3247 93.3425 25.3247Z" fill="#FBC988"/>
<path id="Vector_9" d="M93.3425 56.4031C94.1245 56.4031 94.7585 55.7702 94.7585 54.9895C94.7585 54.2089 94.1245 53.576 93.3425 53.576C92.5605 53.576 91.9265 54.2089 91.9265 54.9895C91.9265 55.7702 92.5605 56.4031 93.3425 56.4031Z" fill="#FBC988"/>
</g>
<g id="Group_3">
<path id="Vector_10" d="M73.0448 25.3247C73.8268 25.3247 74.4607 24.6918 74.4607 23.9112C74.4607 23.1305 73.8268 22.4977 73.0448 22.4977C72.2627 22.4977 71.6288 23.1305 71.6288 23.9112C71.6288 24.6918 72.2627 25.3247 73.0448 25.3247Z" fill="#FBC988"/>
<path id="Vector_11" d="M73.0448 56.4031C73.8268 56.4031 74.4607 55.7702 74.4607 54.9895C74.4607 54.2089 73.8268 53.576 73.0448 53.576C72.2627 53.576 71.6288 54.2089 71.6288 54.9895C71.6288 55.7702 72.2627 56.4031 73.0448 56.4031Z" fill="#FBC988"/>
</g>
<g id="Group_4">
<path id="Vector_12" d="M52.7469 25.3247C53.5289 25.3247 54.1629 24.6918 54.1629 23.9112C54.1629 23.1305 53.5289 22.4977 52.7469 22.4977C51.9649 22.4977 51.3309 23.1305 51.3309 23.9112C51.3309 24.6918 51.9649 25.3247 52.7469 25.3247Z" fill="#FBC988"/>
<path id="Vector_13" d="M52.7469 56.4031C53.5289 56.4031 54.1629 55.7702 54.1629 54.9895C54.1629 54.2089 53.5289 53.576 52.7469 53.576C51.9649 53.576 51.3309 54.2089 51.3309 54.9895C51.3309 55.7702 51.9649 56.4031 52.7469 56.4031Z" fill="#FBC988"/>
</g>
<g id="Group_5">
<path id="Vector_14" d="M32.4491 25.3247C33.2311 25.3247 33.865 24.6918 33.865 23.9112C33.865 23.1305 33.2311 22.4977 32.4491 22.4977C31.667 22.4977 31.0331 23.1305 31.0331 23.9112C31.0331 24.6918 31.667 25.3247 32.4491 25.3247Z" fill="#FBC988"/>
<path id="Vector_15" d="M32.4491 56.4031C33.2311 56.4031 33.865 55.7702 33.865 54.9895C33.865 54.2089 33.2311 53.576 32.4491 53.576C31.667 53.576 31.0331 54.2089 31.0331 54.9895C31.0331 55.7702 31.667 56.4031 32.4491 56.4031Z" fill="#FBC988"/>
</g>
<g id="Group_6">
<path id="Vector_16" d="M12.1512 25.3247C12.9332 25.3247 13.5672 24.6918 13.5672 23.9112C13.5672 23.1305 12.9332 22.4977 12.1512 22.4977C11.3692 22.4977 10.7352 23.1305 10.7352 23.9112C10.7352 24.6918 11.3692 25.3247 12.1512 25.3247Z" fill="#FBC988"/>
<path id="Vector_17" d="M12.1512 56.4031C12.9332 56.4031 13.5672 55.7702 13.5672 54.9895C13.5672 54.2089 12.9332 53.576 12.1512 53.576C11.3692 53.576 10.7352 54.2089 10.7352 54.9895C10.7352 55.7702 11.3692 56.4031 12.1512 56.4031Z" fill="#FBC988"/>
</g>
<g id="Group_7">
<g id="Group_8" opacity="0.4">
<path id="Vector_18" d="M12.9434 22.7343C13.0495 22.9335 13.1119 23.1515 13.1119 23.3881C13.1119 24.1727 12.4756 24.8016 11.6959 24.8016C11.4027 24.8016 11.1282 24.7144 10.9037 24.5587C11.1407 25.0071 11.6086 25.3184 12.1575 25.3184C12.9434 25.3184 13.5735 24.6833 13.5735 23.9049C13.5735 23.413 13.324 22.9833 12.9497 22.728L12.9434 22.7343Z" fill="black"/>
</g>
<g id="Group_9" opacity="0.4">
<path id="Vector_19" d="M12.9434 53.8189C13.0495 54.0181 13.1119 54.2361 13.1119 54.4727C13.1119 55.2573 12.4756 55.8862 11.6959 55.8862C11.4027 55.8862 11.1282 55.799 10.9037 55.6433C11.1407 56.0917 11.6086 56.403 12.1575 56.403C12.9434 56.403 13.5735 55.7679 13.5735 54.9895C13.5735 54.4976 13.324 54.0679 12.9497 53.8126L12.9434 53.8189Z" fill="black"/>
</g>
</g>
<g id="Group_10">
<g id="Group_11" opacity="0.4">
<path id="Vector_20" d="M53.539 22.7343C53.6451 22.9335 53.7075 23.1515 53.7075 23.3881C53.7075 24.1727 53.0712 24.8016 52.2915 24.8016C51.9983 24.8016 51.7238 24.7144 51.4993 24.5587C51.7363 25.0071 52.2041 25.3184 52.7531 25.3184C53.539 25.3184 54.169 24.6833 54.169 23.9049C54.169 23.413 53.9195 22.9833 53.5453 22.728L53.539 22.7343Z" fill="black"/>
</g>
<g id="Group_12" opacity="0.4">
<path id="Vector_21" d="M53.539 53.8189C53.6451 54.0181 53.7075 54.2361 53.7075 54.4727C53.7075 55.2573 53.0712 55.8862 52.2915 55.8862C51.9983 55.8862 51.7238 55.799 51.4993 55.6433C51.7363 56.0917 52.2041 56.403 52.7531 56.403C53.539 56.403 54.169 55.7679 54.169 54.9895C54.169 54.4976 53.9195 54.0679 53.5453 53.8126L53.539 53.8189Z" fill="black"/>
</g>
</g>
<g id="Group_13">
<g id="Group_14" opacity="0.4">
<path id="Vector_22" d="M94.1347 22.7343C94.2408 22.9335 94.3031 23.1515 94.3031 23.3881C94.3031 24.1727 93.6669 24.8016 92.8872 24.8016C92.594 24.8016 92.3195 24.7144 92.095 24.5587C92.332 25.0071 92.7998 25.3184 93.3488 25.3184C94.1347 25.3184 94.7648 24.6833 94.7648 23.9049C94.7648 23.413 94.5152 22.9833 94.141 22.728L94.1347 22.7343Z" fill="black"/>
</g>
<g id="Group_15" opacity="0.4">
<path id="Vector_23" d="M94.1347 53.8189C94.2408 54.0181 94.3031 54.2361 94.3031 54.4727C94.3031 55.2573 93.6669 55.8862 92.8872 55.8862C92.594 55.8862 92.3195 55.799 92.095 55.6433C92.332 56.0917 92.7998 56.403 93.3488 56.403C94.1347 56.403 94.7648 55.7679 94.7648 54.9895C94.7648 54.4976 94.5152 54.0679 94.141 53.8126L94.1347 53.8189Z" fill="black"/>
</g>
</g>
<g id="Group_16" opacity="0.2">
<path id="Vector_24" d="M12.2386 2.02991C10.9785 4.96276 9.50018 7.78976 7.97191 10.5919L8.01558 10.4175C7.99686 13.313 7.93449 16.196 7.65379 19.0791C7.37308 16.1649 7.31071 13.2507 7.29199 10.3241C8.83273 7.4971 10.4296 4.69501 12.2386 2.02991Z" fill="white"/>
</g>
<g id="Group_17" opacity="0.2">
<path id="Vector_25" d="M32.6985 2.86438C31.4385 5.79724 29.9601 8.62424 28.4319 11.4263L28.4755 11.252C28.4568 14.1475 28.3944 17.0305 28.1137 19.9136C27.833 16.9994 27.7707 14.0852 27.752 11.1586C29.2927 8.33157 30.8896 5.52948 32.6985 2.86438Z" fill="white"/>
</g>
<g id="Group_18" opacity="0.2">
<path id="Vector_26" d="M53.0151 2.75854C51.755 5.6914 50.2767 8.5184 48.7484 11.3205L48.7921 11.1461C48.7734 14.0416 48.711 16.9247 48.4303 19.8077C48.1496 16.8935 48.0872 13.9794 48.0685 11.0527C49.6092 8.22574 51.2061 5.42365 53.0151 2.75854Z" fill="white"/>
</g>
<g id="Group_19" opacity="0.2">
<path id="Vector_27" d="M72.7328 2.75854C71.4728 5.6914 69.9944 8.5184 68.4662 11.3205L68.5098 11.1461C68.4911 14.0416 68.4288 16.9247 68.148 19.8077C67.8673 16.8935 67.805 13.9794 67.7863 11.0527C69.327 8.22574 70.9239 5.42365 72.7328 2.75854Z" fill="white"/>
</g>
<g id="Group_20" opacity="0.2">
<path id="Vector_28" d="M93.1741 2.54053C91.9141 5.47338 90.4357 8.30038 88.9075 11.1025L88.9511 10.9281C88.9324 13.8236 88.87 16.7067 88.5893 19.5897C88.3086 16.6755 88.2463 13.7614 88.2275 10.8347C89.7683 8.00772 91.3652 5.20563 93.1741 2.54053Z" fill="white"/>
</g>
<g id="Group_21" opacity="0.2">
<path id="Vector_29" d="M5.6951 20.5798H3.31226V28.077H5.6951V20.5798Z" fill="black"/>
</g>
<g id="Group_22" opacity="0.2">
<path id="Vector_30" d="M5.6951 52.3182H3.31226V59.8154H5.6951V52.3182Z" fill="black"/>
</g>
<g id="Group_23" opacity="0.2">
<path id="Vector_31" d="M18.2518 20.5798V28.077H24.4273C21.5516 27.3422 19.5431 24.7581 19.5431 21.7941V20.5798H18.2518Z" fill="black"/>
</g>
<g id="Group_24" opacity="0.2">
<path id="Vector_32" d="M18.2518 52.3182V59.8154H24.4273C21.5516 59.0806 19.5431 56.4965 19.5431 53.5325V52.3182H18.2518Z" fill="black"/>
</g>
<g id="Group_25" opacity="0.2">
<path id="Vector_33" d="M38.9926 20.5798V28.077H45.168C42.2924 27.3422 40.2838 24.7581 40.2838 21.7941V20.5798H38.9926Z" fill="black"/>
</g>
<g id="Group_26" opacity="0.2">
<path id="Vector_34" d="M38.9926 52.3182V59.8154H45.168C42.2924 59.0806 40.2838 56.4965 40.2838 53.5325V52.3182H38.9926Z" fill="black"/>
</g>
<g id="Group_27" opacity="0.2">
<path id="Vector_35" d="M59.2904 20.5798V28.077H65.4658C62.5902 27.3422 60.5816 24.7581 60.5816 21.7941V20.5798H59.2904Z" fill="black"/>
</g>
<g id="Group_28" opacity="0.2">
<path id="Vector_36" d="M59.2904 52.3182V59.8154H65.4658C62.5902 59.0806 60.5816 56.4965 60.5816 53.5325V52.3182H59.2904Z" fill="black"/>
</g>
<g id="Group_29" opacity="0.2">
<path id="Vector_37" d="M79.0081 20.5798V28.077H85.1835C82.3079 27.3422 80.2993 24.7581 80.2993 21.7941V20.5798H79.0081Z" fill="black"/>
</g>
<g id="Group_30" opacity="0.2">
<path id="Vector_38" d="M79.0081 52.3182V59.8154H85.1835C82.3079 59.0806 80.2993 56.4965 80.2993 53.5325V52.3182H79.0081Z" fill="black"/>
</g>
<g id="Group_31" opacity="0.2">
<path id="Vector_39" d="M99.7488 20.5798V28.077H105.924C103.049 27.3422 101.04 24.7581 101.04 21.7941V20.5798H99.7488Z" fill="black"/>
</g>
<g id="Group_32" opacity="0.2">
<path id="Vector_40" d="M99.7488 52.3182V59.8154H105.924C103.049 59.0806 101.04 56.4965 101.04 53.5325V52.3182H99.7488Z" fill="black"/>
</g>
<g id="Group_33">
<g id="Group_34" opacity="0.3">
<path id="Vector_41" d="M33.2413 22.7343C33.3473 22.9335 33.4097 23.1515 33.4097 23.3881C33.4097 24.1727 32.7735 24.8016 31.9937 24.8016C31.7006 24.8016 31.4261 24.7144 31.2015 24.5587C31.4386 25.0071 31.9064 25.3184 32.4553 25.3184C33.2413 25.3184 33.8713 24.6833 33.8713 23.9049C33.8713 23.413 33.6218 22.9833 33.2475 22.728L33.2413 22.7343Z" fill="black"/>
</g>
<g id="Group_35" opacity="0.3">
<path id="Vector_42" d="M33.2413 53.8189C33.3473 54.0181 33.4097 54.2361 33.4097 54.4727C33.4097 55.2573 32.7735 55.8862 31.9937 55.8862C31.7006 55.8862 31.4261 55.799 31.2015 55.6433C31.4386 56.0917 31.9064 56.403 32.4553 56.403C33.2413 56.403 33.8713 55.7679 33.8713 54.9895C33.8713 54.4976 33.6218 54.0679 33.2475 53.8126L33.2413 53.8189Z" fill="black"/>
</g>
</g>
<g id="Group_36">
<g id="Group_37" opacity="0.3">
<path id="Vector_43" d="M73.8369 22.7343C73.9429 22.9335 74.0053 23.1515 74.0053 23.3881C74.0053 24.1727 73.369 24.8016 72.5893 24.8016C72.2961 24.8016 72.0217 24.7144 71.7971 24.5587C72.0342 25.0071 72.502 25.3184 73.0509 25.3184C73.8369 25.3184 74.4669 24.6833 74.4669 23.9049C74.4669 23.413 74.2174 22.9833 73.8431 22.728L73.8369 22.7343Z" fill="black"/>
</g>
<g id="Group_38" opacity="0.3">
<path id="Vector_44" d="M73.8369 53.8189C73.9429 54.0181 74.0053 54.2361 74.0053 54.4727C74.0053 55.2573 73.369 55.8862 72.5893 55.8862C72.2961 55.8862 72.0217 55.799 71.7971 55.6433C72.0342 56.0917 72.502 56.403 73.0509 56.403C73.8369 56.403 74.4669 55.7679 74.4669 54.9895C74.4669 54.4976 74.2174 54.0679 73.8431 53.8126L73.8369 53.8189Z" fill="black"/>
</g>
</g>
</g>
<defs>
<clipPath id="clip0_77_8086">
<rect width="105.924" height="68.5392" fill="white"/>
</clipPath>
</defs>
</svg>
