<svg width="152" height="145" viewBox="0 0 152 145" fill="none" xmlns="http://www.w3.org/2000/svg">
<g id="Top Star">
<path id="Vector" d="M149.559 61.3669L139.962 70.7322L137.481 73.1662L133.309 77.223L132.196 78.2893L127.977 82.4156L122.738 87.5387L119.794 90.4132C118.264 91.8968 117.568 94.0295 117.939 96.139L118.612 100.126L121.579 117.466L122.158 120.804L122.413 122.241L123.248 127.132L123.503 128.57L124.963 137.077C125.867 142.363 120.327 146.396 115.575 143.893L86.4358 128.57L83.6772 127.132L78.7859 124.559C78.7859 124.559 78.7164 124.513 78.67 124.49C78.3223 124.304 77.9514 124.165 77.5805 124.073C76.0042 123.609 74.2655 123.771 72.7819 124.559L67.8907 127.132L65.1321 128.57L35.9931 143.893C31.2409 146.396 25.7006 142.363 26.6046 137.077L28.0651 128.57L28.3201 127.132L29.1546 122.241L29.4096 120.804L29.9891 117.466L32.9564 100.126L33.6286 96.139C33.9068 94.5626 33.5823 92.9631 32.7477 91.6418C32.4696 91.2013 32.145 90.7841 31.7509 90.4132L27.9955 86.7505L26.9756 85.7537L25.8629 84.6874L22.1538 81.0711L19.7198 78.6834L16.0108 75.0671L14.898 74.0007L13.8781 73.004L12.0467 71.219L1.96284 61.3901C-1.88527 57.6579 0.247421 51.1207 5.55595 50.3557L46.7029 44.375C47.9315 44.1895 49.0674 43.6795 49.9715 42.8913C50.6205 42.335 51.1769 41.6395 51.571 40.8514L59.1281 25.5517L60.4495 22.8626L61.1681 21.4254L63.5789 16.5341L64.2976 15.0969L69.977 3.59891C72.3415 -1.19964 79.2032 -1.19964 81.5677 3.59891L81.8227 4.13208L87.2471 15.0969L87.9657 16.5341L90.3766 21.4254L91.0952 22.8626L92.4166 25.5517L99.9737 40.8514C100.368 41.6395 100.924 42.335 101.573 42.8913C102.477 43.6795 103.613 44.1895 104.842 44.375L145.989 50.3557C151.297 51.1207 153.407 57.6579 149.582 61.3901L149.559 61.3669Z" fill="#F7BC39"/>
<path id="Vector_2" d="M123.155 65.2848L116.989 71.2888L115.389 72.842L112.723 75.4383L112.005 76.1337L109.293 78.7764L105.931 82.0681L104.054 83.8995C103.08 84.8499 102.64 86.2176 102.848 87.5853L103.289 90.1584L105.19 101.309L105.56 103.441L105.723 104.369L106.256 107.521L106.418 108.449L107.345 113.919C107.925 117.304 104.355 119.9 101.318 118.301L82.5877 108.449L80.8259 107.521L77.6732 105.875C77.6732 105.875 77.6269 105.852 77.6037 105.829C77.3719 105.713 77.14 105.62 76.9082 105.551C75.8883 105.25 74.7755 105.365 73.8251 105.875L70.6725 107.521L68.9107 108.449L50.1801 118.301C47.1202 119.9 43.5734 117.304 44.153 113.919L45.0802 108.449L45.2425 107.521L45.7757 104.369L45.9379 103.441L46.3088 101.309L48.2097 90.1584L48.6502 87.5853C48.8124 86.5653 48.627 85.5454 48.0938 84.6876C47.9083 84.4095 47.6997 84.1313 47.4679 83.8995L45.057 81.5582L44.408 80.9323L43.6893 80.2368L41.3016 77.9187L39.7253 76.3887L37.3608 74.0706L36.6422 73.3751L35.9931 72.7492L34.8109 71.5902L28.3433 65.2848C25.886 62.874 27.2306 58.7013 30.6382 58.1913L57.065 54.3432C57.8531 54.2273 58.5718 53.9028 59.1745 53.3928C59.5918 53.0451 59.9395 52.5814 60.1945 52.0714L65.0394 42.2425L65.8971 40.5039L66.3607 39.5767L67.9139 36.424L68.3775 35.4968L72.017 28.1251C73.5469 25.042 77.9514 25.042 79.4582 28.1251L79.6205 28.4728L83.0977 35.5199L83.5613 36.4472L85.1145 39.5999L85.5781 40.5271L86.4358 42.2657L91.2807 52.0946C91.5357 52.6046 91.8834 53.0451 92.3007 53.416C92.8802 53.926 93.622 54.2505 94.4102 54.3664L120.837 58.2145C124.245 58.7013 125.612 62.8971 123.132 65.308L123.155 65.2848Z" fill="#FFCB41"/>
<path id="Vector_3" d="M99.7179 68.7617L96.6116 71.7985L95.8003 72.5867L94.4557 73.908L94.108 74.2557L92.7403 75.6002L91.0481 77.2693L90.0976 78.1965C89.6108 78.6834 89.379 79.3788 89.4949 80.0511L89.7267 81.3492L90.7004 86.9823L90.8858 88.0718L90.9554 88.5354L91.2335 90.135L91.3031 90.5986L91.7667 93.3572C92.068 95.0726 90.2599 96.3707 88.7299 95.5826L79.2719 90.5986L78.3678 90.135L76.7683 89.3004C76.7683 89.3004 76.7451 89.3004 76.722 89.3004C76.722 89.3004 76.4902 89.1845 76.3742 89.1613C75.8643 89.0223 75.3079 89.0686 74.8211 89.3236L73.2216 90.1581L72.3175 90.6218L62.8595 95.6058C61.3295 96.4171 59.5214 95.0958 59.8227 93.3804L60.2864 90.6218L60.3559 90.1581L60.6341 88.5586L60.7036 88.095L60.8891 87.0055L61.8627 81.3724L62.0945 80.0742C62.1872 79.5642 62.0945 79.0543 61.8163 78.6138C61.7236 78.4747 61.6309 78.3356 61.4918 78.2197L60.2632 77.0375L59.9387 76.7129L59.5909 76.3652L58.3855 75.183L57.5973 74.418L56.3919 73.2357L56.0442 72.888L55.7196 72.5635L55.1169 71.9839L51.8483 68.7849C50.5965 67.5795 51.292 65.4468 53.0074 65.1918L66.3599 63.2446C66.754 63.175 67.1249 63.0127 67.4262 62.7578C67.6349 62.5723 67.8203 62.3405 67.9362 62.0855L70.3934 57.1247L70.8339 56.2438L71.0657 55.7802L71.8539 54.1806L72.0857 53.717L73.917 49.9848C74.682 48.4317 76.9074 48.4317 77.6724 49.9848L77.7651 50.1471L79.5269 53.717L79.7587 54.1806L80.5469 55.7802L80.7787 56.2438L81.2191 57.1247L83.6764 62.0855C83.7923 62.3405 83.9777 62.5723 84.1864 62.7578C84.4877 63.0127 84.8586 63.175 85.2527 63.2446L98.6052 65.1918C100.321 65.4468 101.016 67.5563 99.7642 68.7849L99.7179 68.7617Z" fill="#FFE843"/>
</g>
</svg>
