<svg width="154" height="136" viewBox="0 0 154 136" fill="none" xmlns="http://www.w3.org/2000/svg">
<g id="Tree Stars">
<g id="Group 17">
<path id="Vector" d="M103.732 61.0721C108.807 61.7899 110.38 63.3451 111.08 68.4208C111.166 69.036 112.054 69.036 112.14 68.4208C112.858 63.3451 114.413 61.7728 119.488 61.0721C120.104 60.9867 120.104 60.098 119.488 60.0126C114.413 59.2948 112.84 57.7396 112.14 52.6639C112.054 52.0487 111.166 52.0487 111.08 52.6639C110.362 57.7396 108.807 59.3119 103.732 60.0126C103.116 60.098 103.116 60.9867 103.732 61.0721Z" fill="white"/>
<path id="Vector_2" d="M54.3068 58.7952L59.6559 51.6174L52.5124 56.9837L50.5128 43.1238L48.5304 56.9837L41.3868 51.6174L46.7189 58.7952L32.9103 60.7947L46.7189 62.7942L41.3868 69.9549L48.5304 64.5887L50.5128 78.4657L52.5124 64.5887L59.6559 69.9549L54.3068 62.7942L68.1154 60.7947L54.3068 58.7952Z" fill="#FFE843"/>
</g>
<path id="Vector_3" d="M80.5244 14.0991L85.3266 7.65626L78.9009 12.4756L77.1064 0L75.3291 12.4756L68.8862 7.65626L73.7055 14.0991L61.2812 15.9107L73.7055 17.7051L68.8862 24.148L75.3291 19.3286L77.1064 31.8042L78.9009 19.3286L85.3266 24.148L80.5244 17.7051L92.9487 15.9107L80.5244 14.0991Z" fill="#F7BC39"/>
<g id="Group 16">
<path id="Vector_4" d="M0.525514 114.398C6.23353 115.201 7.99378 116.962 8.79701 122.67C8.89955 123.37 9.89075 123.37 9.99329 122.67C10.7965 116.962 12.5568 115.201 18.2648 114.398C18.9655 114.296 18.9655 113.287 18.2648 113.202C12.5568 112.399 10.7965 110.638 9.99329 104.93C9.89075 104.23 8.89955 104.23 8.79701 104.93C7.99378 110.638 6.23353 112.399 0.525514 113.202C-0.175171 113.304 -0.175171 114.296 0.525514 114.398Z" fill="white"/>
<path id="Vector_5" d="M140.671 113.965L145.473 107.522L139.047 112.341L137.253 99.8656L135.475 112.341L129.032 107.522L133.852 113.965L121.427 115.776L133.852 117.571L129.032 124.031L135.475 119.194L137.253 131.67L139.047 119.194L145.473 124.031L140.671 117.571L153.095 115.776L140.671 113.965Z" fill="#F7BC39"/>
<path id="Vector_6" d="M74.884 112.108L81.1048 103.734L72.782 109.989L70.4578 93.8215L68.1335 109.989L59.7937 103.734L66.0315 112.108L49.9328 114.432L66.0315 116.773L59.7937 125.13L68.1335 118.875L70.4578 135.042L72.782 118.875L81.1048 125.13L74.884 116.773L90.9827 114.432L74.884 112.108Z" fill="#FFE843"/>
</g>
</g>
</svg>
